<svg xmlns="http://www.w3.org/2000/svg" xmlns:xlink="http://www.w3.org/1999/xlink" width="60" zoomAndPan="magnify" viewBox="0 0 45 36.000001" height="48" preserveAspectRatio="xMidYMid meet" version="1.0"><defs><g/><clipPath id="28c8112b54"><path d="M 0.609375 6.675781 L 16.121094 6.675781 L 16.121094 12.769531 L 0.609375 12.769531 Z M 0.609375 6.675781 " clip-rule="nonzero"/></clipPath><clipPath id="0950e05ed4"><path d="M 8.355469 6.675781 L 16.101562 12.769531 L 0.609375 12.769531 Z M 8.355469 6.675781 " clip-rule="nonzero"/></clipPath><clipPath id="259e3bc67e"><path d="M 5.789062 19.089844 L 44.390625 19.089844 L 44.390625 26.058594 L 5.789062 26.058594 Z M 5.789062 19.089844 " clip-rule="nonzero"/></clipPath><clipPath id="801867c7c1"><path d="M 5 18 L 44.390625 18 L 44.390625 19 L 5 19 Z M 5 18 " clip-rule="nonzero"/></clipPath><clipPath id="d2dfc1e383"><path d="M 11 9.332031 L 15.777344 9.332031 L 15.777344 13 L 11 13 Z M 11 9.332031 " clip-rule="nonzero"/></clipPath><clipPath id="cfd76ef25e"><path d="M 6.289062 9.332031 L 11 9.332031 L 11 13 L 6.289062 13 Z M 6.289062 9.332031 " clip-rule="nonzero"/></clipPath><clipPath id="aba95fcef5"><path d="M 6.289062 10 L 10 10 L 10 11 L 6.289062 11 Z M 6.289062 10 " clip-rule="nonzero"/></clipPath><clipPath id="ed622c065b"><path d="M 12 10 L 15.777344 10 L 15.777344 11 L 12 11 Z M 12 10 " clip-rule="nonzero"/></clipPath><clipPath id="c6d6e53d63"><path d="M 10 9.332031 L 12 9.332031 L 12 11 L 10 11 Z M 10 9.332031 " clip-rule="nonzero"/></clipPath><clipPath id="f45bd12ad0"><path d="M 10 15 L 12 15 L 12 18.089844 L 10 18.089844 Z M 10 15 " clip-rule="nonzero"/></clipPath><clipPath id="bf065d6df8"><path d="M 11 17 L 12 17 L 12 18.089844 L 11 18.089844 Z M 11 17 " clip-rule="nonzero"/></clipPath><clipPath id="b1bb05e8a5"><path d="M 10 18 L 11 18 L 11 18.089844 L 10 18.089844 Z M 10 18 " clip-rule="nonzero"/></clipPath><clipPath id="4f6a68c9db"><path d="M 11 18 L 12 18 L 12 18.089844 L 11 18.089844 Z M 11 18 " clip-rule="nonzero"/></clipPath><clipPath id="7df518a866"><path d="M 11 9.332031 L 16.078125 9.332031 L 16.078125 13 L 11 13 Z M 11 9.332031 " clip-rule="nonzero"/></clipPath><clipPath id="838b316706"><path d="M 6.59375 9.332031 L 11 9.332031 L 11 13 L 6.59375 13 Z M 6.59375 9.332031 " clip-rule="nonzero"/></clipPath><clipPath id="b5fc4b7d6a"><path d="M 10 9.332031 L 12 9.332031 L 12 11 L 10 11 Z M 10 9.332031 " clip-rule="nonzero"/></clipPath><clipPath id="ecf87506f7"><path d="M 10 15 L 13 15 L 13 18.089844 L 10 18.089844 Z M 10 15 " clip-rule="nonzero"/></clipPath><clipPath id="841113cb16"><path d="M 11 17 L 13 17 L 13 18.089844 L 11 18.089844 Z M 11 17 " clip-rule="nonzero"/></clipPath><clipPath id="9e5a669e51"><path d="M 11 18 L 12 18 L 12 18.089844 L 11 18.089844 Z M 11 18 " clip-rule="nonzero"/></clipPath></defs><g clip-path="url(#28c8112b54)"><g clip-path="url(#0950e05ed4)"><path fill="#004aad" d="M 0.609375 6.675781 L 16.097656 6.675781 L 16.097656 12.769531 L 0.609375 12.769531 Z M 0.609375 6.675781 " fill-opacity="1" fill-rule="nonzero"/></g></g><path stroke-linecap="butt" transform="matrix(0, -0.72973, 0.72973, 0, 2.82916, 28.220581)" fill="none" stroke-linejoin="miter" d="M 0.00250964 0.999594 L 20.542006 0.999594 " stroke="#004aad" stroke-width="2" stroke-opacity="1" stroke-miterlimit="4"/><path stroke-linecap="butt" transform="matrix(0, -0.72973, 0.72973, 0, 8.381462, 18.190297)" fill="none" stroke-linejoin="miter" d="M -0.00152052 0.997511 L 6.973451 0.997511 " stroke="#004aad" stroke-width="2" stroke-opacity="1" stroke-miterlimit="4"/><path stroke-linecap="butt" transform="matrix(0, -0.72973, 0.72973, 0, 10.502357, 18.190297)" fill="none" stroke-linejoin="miter" d="M -0.00152052 0.997783 L 6.973451 0.997783 " stroke="#004aad" stroke-width="2" stroke-opacity="1" stroke-miterlimit="4"/><path stroke-linecap="butt" transform="matrix(0, -0.72973, 0.72973, 0, 12.775181, 18.163459)" fill="none" stroke-linejoin="miter" d="M -0.000826735 0.998624 L 6.974144 0.998624 " stroke="#004aad" stroke-width="2" stroke-opacity="1" stroke-miterlimit="4"/><g fill="#004aad" fill-opacity="1"><g transform="translate(15.686218, 17.229643)"><g><path d="M 1 -1.515625 C 0.851562 -1.515625 0.738281 -1.457031 0.65625 -1.34375 C 0.582031 -1.238281 0.546875 -1.09375 0.546875 -0.90625 C 0.546875 -0.5 0.695312 -0.296875 1 -0.296875 C 1.125 -0.296875 1.273438 -0.328125 1.453125 -0.390625 L 1.453125 -0.0625 C 1.304688 0 1.140625 0.03125 0.953125 0.03125 C 0.691406 0.03125 0.488281 -0.046875 0.34375 -0.203125 C 0.207031 -0.367188 0.140625 -0.601562 0.140625 -0.90625 C 0.140625 -1.09375 0.175781 -1.253906 0.25 -1.390625 C 0.320312 -1.535156 0.421875 -1.644531 0.546875 -1.71875 C 0.671875 -1.789062 0.820312 -1.828125 1 -1.828125 C 1.175781 -1.828125 1.351562 -1.785156 1.53125 -1.703125 L 1.40625 -1.390625 C 1.332031 -1.421875 1.257812 -1.445312 1.1875 -1.46875 C 1.125 -1.5 1.0625 -1.515625 1 -1.515625 Z M 1 -1.515625 "/></g></g><g transform="translate(17.295394, 17.229643)"><g><path d="M 1.265625 0 L 0.234375 0 L 0.234375 -1.8125 L 1.265625 -1.8125 L 1.265625 -1.5 L 0.609375 -1.5 L 0.609375 -1.09375 L 1.21875 -1.09375 L 1.21875 -0.78125 L 0.609375 -0.78125 L 0.609375 -0.3125 L 1.265625 -0.3125 Z M 1.265625 0 "/></g></g><g transform="translate(18.709743, 17.229643)"><g><path d="M 1.828125 0 L 1.34375 0 L 0.5625 -1.359375 L 0.546875 -1.359375 C 0.554688 -1.117188 0.5625 -0.945312 0.5625 -0.84375 L 0.5625 0 L 0.234375 0 L 0.234375 -1.8125 L 0.703125 -1.8125 L 1.5 -0.453125 C 1.488281 -0.691406 1.484375 -0.859375 1.484375 -0.953125 L 1.484375 -1.8125 L 1.828125 -1.8125 Z M 1.828125 0 "/></g></g><g transform="translate(20.76283, 17.229643)"><g><path d="M 0.921875 0 L 0.546875 0 L 0.546875 -1.484375 L 0.046875 -1.484375 L 0.046875 -1.8125 L 1.421875 -1.8125 L 1.421875 -1.484375 L 0.921875 -1.484375 Z M 0.921875 0 "/></g></g><g transform="translate(22.225269, 17.229643)"><g><path d="M 0.609375 -1 L 0.734375 -1 C 0.859375 -1 0.945312 -1.019531 1 -1.0625 C 1.0625 -1.101562 1.09375 -1.164062 1.09375 -1.25 C 1.09375 -1.34375 1.0625 -1.40625 1 -1.4375 C 0.9375 -1.476562 0.847656 -1.5 0.734375 -1.5 L 0.609375 -1.5 Z M 0.609375 -0.6875 L 0.609375 0 L 0.234375 0 L 0.234375 -1.8125 L 0.75 -1.8125 C 1 -1.8125 1.179688 -1.765625 1.296875 -1.671875 C 1.410156 -1.578125 1.46875 -1.441406 1.46875 -1.265625 C 1.46875 -1.160156 1.4375 -1.066406 1.375 -0.984375 C 1.320312 -0.898438 1.242188 -0.832031 1.140625 -0.78125 C 1.410156 -0.375 1.585938 -0.113281 1.671875 0 L 1.25 0 L 0.8125 -0.6875 Z M 0.609375 -0.6875 "/></g></g><g transform="translate(23.8924, 17.229643)"><g><path d="M 1.875 -0.90625 C 1.875 -0.601562 1.796875 -0.367188 1.640625 -0.203125 C 1.492188 -0.046875 1.28125 0.03125 1 0.03125 C 0.726562 0.03125 0.515625 -0.046875 0.359375 -0.203125 C 0.210938 -0.367188 0.140625 -0.601562 0.140625 -0.90625 C 0.140625 -1.207031 0.210938 -1.4375 0.359375 -1.59375 C 0.515625 -1.75 0.734375 -1.828125 1.015625 -1.828125 C 1.285156 -1.828125 1.492188 -1.75 1.640625 -1.59375 C 1.796875 -1.4375 1.875 -1.207031 1.875 -0.90625 Z M 0.546875 -0.90625 C 0.546875 -0.707031 0.582031 -0.554688 0.65625 -0.453125 C 0.738281 -0.347656 0.851562 -0.296875 1 -0.296875 C 1.3125 -0.296875 1.46875 -0.5 1.46875 -0.90625 C 1.46875 -1.3125 1.316406 -1.515625 1.015625 -1.515625 C 0.859375 -1.515625 0.738281 -1.460938 0.65625 -1.359375 C 0.582031 -1.253906 0.546875 -1.101562 0.546875 -0.90625 Z M 0.546875 -0.90625 "/></g></g><g transform="translate(25.902329, 17.229643)"><g/></g><g transform="translate(26.55833, 17.229643)"><g><path d="M 1.875 -0.90625 C 1.875 -0.695312 1.832031 -0.519531 1.75 -0.375 C 1.675781 -0.226562 1.566406 -0.125 1.421875 -0.0625 L 1.859375 0.4375 L 1.359375 0.4375 L 1.03125 0.03125 L 1 0.03125 C 0.726562 0.03125 0.515625 -0.046875 0.359375 -0.203125 C 0.210938 -0.367188 0.140625 -0.601562 0.140625 -0.90625 C 0.140625 -1.207031 0.210938 -1.4375 0.359375 -1.59375 C 0.515625 -1.75 0.734375 -1.828125 1.015625 -1.828125 C 1.285156 -1.828125 1.492188 -1.75 1.640625 -1.59375 C 1.796875 -1.4375 1.875 -1.207031 1.875 -0.90625 Z M 0.546875 -0.90625 C 0.546875 -0.707031 0.582031 -0.554688 0.65625 -0.453125 C 0.738281 -0.347656 0.851562 -0.296875 1 -0.296875 C 1.3125 -0.296875 1.46875 -0.5 1.46875 -0.90625 C 1.46875 -1.3125 1.316406 -1.515625 1.015625 -1.515625 C 0.859375 -1.515625 0.738281 -1.460938 0.65625 -1.359375 C 0.582031 -1.253906 0.546875 -1.101562 0.546875 -0.90625 Z M 0.546875 -0.90625 "/></g></g><g transform="translate(28.568259, 17.229643)"><g><path d="M 1.703125 -1.8125 L 1.703125 -0.640625 C 1.703125 -0.503906 1.671875 -0.382812 1.609375 -0.28125 C 1.546875 -0.1875 1.457031 -0.109375 1.34375 -0.046875 C 1.238281 0.00390625 1.109375 0.03125 0.953125 0.03125 C 0.710938 0.03125 0.53125 -0.0234375 0.40625 -0.140625 C 0.28125 -0.265625 0.21875 -0.429688 0.21875 -0.640625 L 0.21875 -1.8125 L 0.59375 -1.8125 L 0.59375 -0.703125 C 0.59375 -0.554688 0.617188 -0.453125 0.671875 -0.390625 C 0.734375 -0.328125 0.828125 -0.296875 0.953125 -0.296875 C 1.078125 -0.296875 1.164062 -0.328125 1.21875 -0.390625 C 1.28125 -0.460938 1.3125 -0.566406 1.3125 -0.703125 L 1.3125 -1.8125 Z M 1.703125 -1.8125 "/></g></g><g transform="translate(30.477075, 17.229643)"><g><path d="M 0.234375 0 L 0.234375 -1.8125 L 0.609375 -1.8125 L 0.609375 0 Z M 0.234375 0 "/></g></g><g transform="translate(31.313107, 17.229643)"><g><path d="M 0.609375 -1 L 0.734375 -1 C 0.859375 -1 0.945312 -1.019531 1 -1.0625 C 1.0625 -1.101562 1.09375 -1.164062 1.09375 -1.25 C 1.09375 -1.34375 1.0625 -1.40625 1 -1.4375 C 0.9375 -1.476562 0.847656 -1.5 0.734375 -1.5 L 0.609375 -1.5 Z M 0.609375 -0.6875 L 0.609375 0 L 0.234375 0 L 0.234375 -1.8125 L 0.75 -1.8125 C 1 -1.8125 1.179688 -1.765625 1.296875 -1.671875 C 1.410156 -1.578125 1.46875 -1.441406 1.46875 -1.265625 C 1.46875 -1.160156 1.4375 -1.066406 1.375 -0.984375 C 1.320312 -0.898438 1.242188 -0.832031 1.140625 -0.78125 C 1.410156 -0.375 1.585938 -0.113281 1.671875 0 L 1.25 0 L 0.8125 -0.6875 Z M 0.609375 -0.6875 "/></g></g><g transform="translate(32.980239, 17.229643)"><g><path d="M 1.703125 -1.8125 L 1.703125 -0.640625 C 1.703125 -0.503906 1.671875 -0.382812 1.609375 -0.28125 C 1.546875 -0.1875 1.457031 -0.109375 1.34375 -0.046875 C 1.238281 0.00390625 1.109375 0.03125 0.953125 0.03125 C 0.710938 0.03125 0.53125 -0.0234375 0.40625 -0.140625 C 0.28125 -0.265625 0.21875 -0.429688 0.21875 -0.640625 L 0.21875 -1.8125 L 0.59375 -1.8125 L 0.59375 -0.703125 C 0.59375 -0.554688 0.617188 -0.453125 0.671875 -0.390625 C 0.734375 -0.328125 0.828125 -0.296875 0.953125 -0.296875 C 1.078125 -0.296875 1.164062 -0.328125 1.21875 -0.390625 C 1.28125 -0.460938 1.3125 -0.566406 1.3125 -0.703125 L 1.3125 -1.8125 Z M 0.734375 -1.953125 L 0.734375 -1.984375 C 0.878906 -2.148438 0.976562 -2.273438 1.03125 -2.359375 L 1.453125 -2.359375 L 1.453125 -2.328125 C 1.410156 -2.285156 1.335938 -2.222656 1.234375 -2.140625 C 1.128906 -2.054688 1.046875 -1.992188 0.984375 -1.953125 Z M 0.734375 -1.953125 "/></g></g><g transform="translate(34.889055, 17.229643)"><g><path d="M 0.609375 -1 L 0.734375 -1 C 0.859375 -1 0.945312 -1.019531 1 -1.0625 C 1.0625 -1.101562 1.09375 -1.164062 1.09375 -1.25 C 1.09375 -1.34375 1.0625 -1.40625 1 -1.4375 C 0.9375 -1.476562 0.847656 -1.5 0.734375 -1.5 L 0.609375 -1.5 Z M 0.609375 -0.6875 L 0.609375 0 L 0.234375 0 L 0.234375 -1.8125 L 0.75 -1.8125 C 1 -1.8125 1.179688 -1.765625 1.296875 -1.671875 C 1.410156 -1.578125 1.46875 -1.441406 1.46875 -1.265625 C 1.46875 -1.160156 1.4375 -1.066406 1.375 -0.984375 C 1.320312 -0.898438 1.242188 -0.832031 1.140625 -0.78125 C 1.410156 -0.375 1.585938 -0.113281 1.671875 0 L 1.25 0 L 0.8125 -0.6875 Z M 0.609375 -0.6875 "/></g></g><g transform="translate(36.556186, 17.229643)"><g><path d="M 0.90625 -1.015625 L 1.625 -1.015625 L 1.625 -0.078125 C 1.507812 -0.0351562 1.398438 -0.0078125 1.296875 0 C 1.191406 0.0195312 1.085938 0.03125 0.984375 0.03125 C 0.710938 0.03125 0.503906 -0.046875 0.359375 -0.203125 C 0.210938 -0.367188 0.140625 -0.601562 0.140625 -0.90625 C 0.140625 -1.195312 0.222656 -1.421875 0.390625 -1.578125 C 0.554688 -1.742188 0.789062 -1.828125 1.09375 -1.828125 C 1.28125 -1.828125 1.457031 -1.789062 1.625 -1.71875 L 1.5 -1.421875 C 1.363281 -1.484375 1.226562 -1.515625 1.09375 -1.515625 C 0.925781 -1.515625 0.789062 -1.457031 0.6875 -1.34375 C 0.59375 -1.238281 0.546875 -1.09375 0.546875 -0.90625 C 0.546875 -0.707031 0.582031 -0.554688 0.65625 -0.453125 C 0.738281 -0.347656 0.859375 -0.296875 1.015625 -0.296875 C 1.085938 -0.296875 1.164062 -0.300781 1.25 -0.3125 L 1.25 -0.703125 L 0.90625 -0.703125 Z M 0.90625 -1.015625 "/></g></g><g transform="translate(38.384851, 17.229643)"><g><path d="M 0.234375 0 L 0.234375 -1.8125 L 0.609375 -1.8125 L 0.609375 0 Z M 0.234375 0 "/></g></g><g transform="translate(39.220883, 17.229643)"><g><path d="M 1 -1.515625 C 0.851562 -1.515625 0.738281 -1.457031 0.65625 -1.34375 C 0.582031 -1.238281 0.546875 -1.09375 0.546875 -0.90625 C 0.546875 -0.5 0.695312 -0.296875 1 -0.296875 C 1.125 -0.296875 1.273438 -0.328125 1.453125 -0.390625 L 1.453125 -0.0625 C 1.304688 0 1.140625 0.03125 0.953125 0.03125 C 0.691406 0.03125 0.488281 -0.046875 0.34375 -0.203125 C 0.207031 -0.367188 0.140625 -0.601562 0.140625 -0.90625 C 0.140625 -1.09375 0.175781 -1.253906 0.25 -1.390625 C 0.320312 -1.535156 0.421875 -1.644531 0.546875 -1.71875 C 0.671875 -1.789062 0.820312 -1.828125 1 -1.828125 C 1.175781 -1.828125 1.351562 -1.785156 1.53125 -1.703125 L 1.40625 -1.390625 C 1.332031 -1.421875 1.257812 -1.445312 1.1875 -1.46875 C 1.125 -1.5 1.0625 -1.515625 1 -1.515625 Z M 1 -1.515625 "/></g></g><g transform="translate(40.830059, 17.229643)"><g><path d="M 1.875 -0.90625 C 1.875 -0.601562 1.796875 -0.367188 1.640625 -0.203125 C 1.492188 -0.046875 1.28125 0.03125 1 0.03125 C 0.726562 0.03125 0.515625 -0.046875 0.359375 -0.203125 C 0.210938 -0.367188 0.140625 -0.601562 0.140625 -0.90625 C 0.140625 -1.207031 0.210938 -1.4375 0.359375 -1.59375 C 0.515625 -1.75 0.734375 -1.828125 1.015625 -1.828125 C 1.285156 -1.828125 1.492188 -1.75 1.640625 -1.59375 C 1.796875 -1.4375 1.875 -1.207031 1.875 -0.90625 Z M 0.546875 -0.90625 C 0.546875 -0.707031 0.582031 -0.554688 0.65625 -0.453125 C 0.738281 -0.347656 0.851562 -0.296875 1 -0.296875 C 1.3125 -0.296875 1.46875 -0.5 1.46875 -0.90625 C 1.46875 -1.3125 1.316406 -1.515625 1.015625 -1.515625 C 0.859375 -1.515625 0.738281 -1.460938 0.65625 -1.359375 C 0.582031 -1.253906 0.546875 -1.101562 0.546875 -0.90625 Z M 0.546875 -0.90625 "/></g></g></g><g clip-path="url(#259e3bc67e)"><path fill="#004aad" d="M 5.789062 19.089844 L 44.394531 19.089844 L 44.394531 26.058594 L 5.789062 26.058594 Z M 5.789062 19.089844 " fill-opacity="1" fill-rule="nonzero"/></g><g fill="#ffffff" fill-opacity="1"><g transform="translate(6.410085, 25.290331)"><g><path d="M 2.296875 -2.484375 C 1.660156 -2.671875 1.195312 -2.894531 0.90625 -3.15625 C 0.625 -3.425781 0.484375 -3.753906 0.484375 -4.140625 C 0.484375 -4.578125 0.65625 -4.941406 1 -5.234375 C 1.351562 -5.523438 1.816406 -5.671875 2.390625 -5.671875 C 2.765625 -5.671875 3.101562 -5.59375 3.40625 -5.4375 C 3.707031 -5.289062 3.941406 -5.085938 4.109375 -4.828125 C 4.273438 -4.566406 4.359375 -4.28125 4.359375 -3.96875 L 3.609375 -3.96875 C 3.609375 -4.3125 3.5 -4.578125 3.28125 -4.765625 C 3.070312 -4.960938 2.773438 -5.0625 2.390625 -5.0625 C 2.023438 -5.0625 1.738281 -4.976562 1.53125 -4.8125 C 1.332031 -4.65625 1.234375 -4.4375 1.234375 -4.15625 C 1.234375 -3.925781 1.328125 -3.734375 1.515625 -3.578125 C 1.710938 -3.421875 2.039062 -3.273438 2.5 -3.140625 C 2.96875 -3.015625 3.332031 -2.867188 3.59375 -2.703125 C 3.851562 -2.546875 4.046875 -2.363281 4.171875 -2.15625 C 4.296875 -1.945312 4.359375 -1.703125 4.359375 -1.421875 C 4.359375 -0.960938 4.179688 -0.597656 3.828125 -0.328125 C 3.484375 -0.0546875 3.015625 0.078125 2.421875 0.078125 C 2.035156 0.078125 1.675781 0.00390625 1.34375 -0.140625 C 1.007812 -0.285156 0.753906 -0.484375 0.578125 -0.734375 C 0.398438 -0.992188 0.3125 -1.289062 0.3125 -1.625 L 1.046875 -1.625 C 1.046875 -1.28125 1.171875 -1.007812 1.421875 -0.8125 C 1.671875 -0.625 2.003906 -0.53125 2.421875 -0.53125 C 2.804688 -0.53125 3.101562 -0.609375 3.3125 -0.765625 C 3.519531 -0.921875 3.625 -1.132812 3.625 -1.40625 C 3.625 -1.6875 3.523438 -1.898438 3.328125 -2.046875 C 3.140625 -2.191406 2.796875 -2.335938 2.296875 -2.484375 Z M 2.296875 -2.484375 "/></g></g></g><g fill="#ffffff" fill-opacity="1"><g transform="translate(11.06621, 25.290331)"><g><path d="M 3.09375 0 C 3.0625 -0.0820312 3.03125 -0.226562 3 -0.4375 C 2.664062 -0.09375 2.269531 0.078125 1.8125 0.078125 C 1.40625 0.078125 1.070312 -0.0351562 0.8125 -0.265625 C 0.550781 -0.503906 0.421875 -0.800781 0.421875 -1.15625 C 0.421875 -1.582031 0.582031 -1.914062 0.90625 -2.15625 C 1.238281 -2.394531 1.703125 -2.515625 2.296875 -2.515625 L 2.984375 -2.515625 L 2.984375 -2.84375 C 2.984375 -3.09375 2.910156 -3.289062 2.765625 -3.4375 C 2.617188 -3.582031 2.398438 -3.65625 2.109375 -3.65625 C 1.859375 -3.65625 1.644531 -3.59375 1.46875 -3.46875 C 1.300781 -3.34375 1.21875 -3.1875 1.21875 -3 L 0.5 -3 C 0.5 -3.207031 0.570312 -3.40625 0.71875 -3.59375 C 0.863281 -3.789062 1.0625 -3.945312 1.3125 -4.0625 C 1.570312 -4.175781 1.851562 -4.234375 2.15625 -4.234375 C 2.632812 -4.234375 3.007812 -4.113281 3.28125 -3.875 C 3.550781 -3.632812 3.691406 -3.300781 3.703125 -2.875 L 3.703125 -0.96875 C 3.703125 -0.59375 3.75 -0.289062 3.84375 -0.0625 L 3.84375 0 Z M 1.921875 -0.546875 C 2.140625 -0.546875 2.347656 -0.601562 2.546875 -0.71875 C 2.753906 -0.832031 2.898438 -0.976562 2.984375 -1.15625 L 2.984375 -2.015625 L 2.4375 -2.015625 C 1.5625 -2.015625 1.125 -1.757812 1.125 -1.25 C 1.125 -1.03125 1.195312 -0.859375 1.34375 -0.734375 C 1.5 -0.609375 1.691406 -0.546875 1.921875 -0.546875 Z M 1.921875 -0.546875 "/></g></g></g><g fill="#ffffff" fill-opacity="1"><g transform="translate(15.335282, 25.290331)"><g><path d="M 1.203125 -4.15625 L 1.234375 -3.625 C 1.546875 -4.03125 1.957031 -4.234375 2.46875 -4.234375 C 3.351562 -4.234375 3.796875 -3.738281 3.796875 -2.75 L 3.796875 0 L 3.09375 0 L 3.09375 -2.75 C 3.09375 -3.050781 3.023438 -3.269531 2.890625 -3.40625 C 2.753906 -3.550781 2.546875 -3.625 2.265625 -3.625 C 2.035156 -3.625 1.832031 -3.5625 1.65625 -3.4375 C 1.476562 -3.320312 1.34375 -3.160156 1.25 -2.953125 L 1.25 0 L 0.53125 0 L 0.53125 -4.15625 Z M 1.203125 -4.15625 "/></g></g></g><g fill="#ffffff" fill-opacity="1"><g transform="translate(19.66567, 25.290331)"><g/></g></g><g fill="#ffffff" fill-opacity="1"><g transform="translate(21.608596, 25.290331)"><g><path d="M 2.703125 -2.265625 L 1.390625 -2.265625 L 1.390625 0 L 0.640625 0 L 0.640625 -5.59375 L 2.5 -5.59375 C 3.125 -5.59375 3.601562 -5.445312 3.9375 -5.15625 C 4.28125 -4.875 4.453125 -4.457031 4.453125 -3.90625 C 4.453125 -3.5625 4.359375 -3.257812 4.171875 -3 C 3.984375 -2.738281 3.722656 -2.546875 3.390625 -2.421875 L 4.703125 -0.046875 L 4.703125 0 L 3.90625 0 Z M 1.390625 -2.859375 L 2.515625 -2.859375 C 2.878906 -2.859375 3.171875 -2.953125 3.390625 -3.140625 C 3.609375 -3.335938 3.71875 -3.59375 3.71875 -3.90625 C 3.71875 -4.25 3.613281 -4.515625 3.40625 -4.703125 C 3.195312 -4.890625 2.898438 -4.984375 2.515625 -4.984375 L 1.390625 -4.984375 Z M 1.390625 -2.859375 "/></g></g></g><g fill="#ffffff" fill-opacity="1"><g transform="translate(26.441002, 25.290331)"><g><path d="M 3.09375 0 C 3.0625 -0.0820312 3.03125 -0.226562 3 -0.4375 C 2.664062 -0.09375 2.269531 0.078125 1.8125 0.078125 C 1.40625 0.078125 1.070312 -0.0351562 0.8125 -0.265625 C 0.550781 -0.503906 0.421875 -0.800781 0.421875 -1.15625 C 0.421875 -1.582031 0.582031 -1.914062 0.90625 -2.15625 C 1.238281 -2.394531 1.703125 -2.515625 2.296875 -2.515625 L 2.984375 -2.515625 L 2.984375 -2.84375 C 2.984375 -3.09375 2.910156 -3.289062 2.765625 -3.4375 C 2.617188 -3.582031 2.398438 -3.65625 2.109375 -3.65625 C 1.859375 -3.65625 1.644531 -3.59375 1.46875 -3.46875 C 1.300781 -3.34375 1.21875 -3.1875 1.21875 -3 L 0.5 -3 C 0.5 -3.207031 0.570312 -3.40625 0.71875 -3.59375 C 0.863281 -3.789062 1.0625 -3.945312 1.3125 -4.0625 C 1.570312 -4.175781 1.851562 -4.234375 2.15625 -4.234375 C 2.632812 -4.234375 3.007812 -4.113281 3.28125 -3.875 C 3.550781 -3.632812 3.691406 -3.300781 3.703125 -2.875 L 3.703125 -0.96875 C 3.703125 -0.59375 3.75 -0.289062 3.84375 -0.0625 L 3.84375 0 Z M 1.921875 -0.546875 C 2.140625 -0.546875 2.347656 -0.601562 2.546875 -0.71875 C 2.753906 -0.832031 2.898438 -0.976562 2.984375 -1.15625 L 2.984375 -2.015625 L 2.4375 -2.015625 C 1.5625 -2.015625 1.125 -1.757812 1.125 -1.25 C 1.125 -1.03125 1.195312 -0.859375 1.34375 -0.734375 C 1.5 -0.609375 1.691406 -0.546875 1.921875 -0.546875 Z M 1.921875 -0.546875 "/></g></g></g><g fill="#ffffff" fill-opacity="1"><g transform="translate(30.710074, 25.290331)"><g><path d="M 0.890625 0 L 0.890625 -3.609375 L 0.234375 -3.609375 L 0.234375 -4.15625 L 0.890625 -4.15625 L 0.890625 -4.578125 C 0.890625 -5.023438 1.003906 -5.367188 1.234375 -5.609375 C 1.472656 -5.847656 1.8125 -5.96875 2.25 -5.96875 C 2.414062 -5.96875 2.578125 -5.945312 2.734375 -5.90625 L 2.703125 -5.328125 C 2.578125 -5.359375 2.445312 -5.375 2.3125 -5.375 C 2.082031 -5.375 1.90625 -5.304688 1.78125 -5.171875 C 1.65625 -5.035156 1.59375 -4.84375 1.59375 -4.59375 L 1.59375 -4.15625 L 2.484375 -4.15625 L 2.484375 -3.609375 L 1.59375 -3.609375 L 1.59375 0 Z M 0.890625 0 "/></g></g></g><g fill="#ffffff" fill-opacity="1"><g transform="translate(33.434769, 25.290331)"><g><path d="M 3.09375 0 C 3.0625 -0.0820312 3.03125 -0.226562 3 -0.4375 C 2.664062 -0.09375 2.269531 0.078125 1.8125 0.078125 C 1.40625 0.078125 1.070312 -0.0351562 0.8125 -0.265625 C 0.550781 -0.503906 0.421875 -0.800781 0.421875 -1.15625 C 0.421875 -1.582031 0.582031 -1.914062 0.90625 -2.15625 C 1.238281 -2.394531 1.703125 -2.515625 2.296875 -2.515625 L 2.984375 -2.515625 L 2.984375 -2.84375 C 2.984375 -3.09375 2.910156 -3.289062 2.765625 -3.4375 C 2.617188 -3.582031 2.398438 -3.65625 2.109375 -3.65625 C 1.859375 -3.65625 1.644531 -3.59375 1.46875 -3.46875 C 1.300781 -3.34375 1.21875 -3.1875 1.21875 -3 L 0.5 -3 C 0.5 -3.207031 0.570312 -3.40625 0.71875 -3.59375 C 0.863281 -3.789062 1.0625 -3.945312 1.3125 -4.0625 C 1.570312 -4.175781 1.851562 -4.234375 2.15625 -4.234375 C 2.632812 -4.234375 3.007812 -4.113281 3.28125 -3.875 C 3.550781 -3.632812 3.691406 -3.300781 3.703125 -2.875 L 3.703125 -0.96875 C 3.703125 -0.59375 3.75 -0.289062 3.84375 -0.0625 L 3.84375 0 Z M 1.921875 -0.546875 C 2.140625 -0.546875 2.347656 -0.601562 2.546875 -0.71875 C 2.753906 -0.832031 2.898438 -0.976562 2.984375 -1.15625 L 2.984375 -2.015625 L 2.4375 -2.015625 C 1.5625 -2.015625 1.125 -1.757812 1.125 -1.25 C 1.125 -1.03125 1.195312 -0.859375 1.34375 -0.734375 C 1.5 -0.609375 1.691406 -0.546875 1.921875 -0.546875 Z M 1.921875 -0.546875 "/></g></g></g><g fill="#ffffff" fill-opacity="1"><g transform="translate(37.703841, 25.290331)"><g><path d="M 2.265625 0.078125 C 1.703125 0.078125 1.242188 -0.101562 0.890625 -0.46875 C 0.535156 -0.84375 0.359375 -1.34375 0.359375 -1.96875 L 0.359375 -2.09375 C 0.359375 -2.5 0.4375 -2.863281 0.59375 -3.1875 C 0.75 -3.519531 0.96875 -3.773438 1.25 -3.953125 C 1.53125 -4.140625 1.835938 -4.234375 2.171875 -4.234375 C 2.710938 -4.234375 3.128906 -4.050781 3.421875 -3.6875 C 3.722656 -3.332031 3.875 -2.828125 3.875 -2.171875 L 3.875 -1.875 L 1.0625 -1.875 C 1.070312 -1.46875 1.191406 -1.132812 1.421875 -0.875 C 1.648438 -0.625 1.941406 -0.5 2.296875 -0.5 C 2.546875 -0.5 2.757812 -0.550781 2.9375 -0.65625 C 3.113281 -0.757812 3.265625 -0.894531 3.390625 -1.0625 L 3.828125 -0.71875 C 3.472656 -0.1875 2.953125 0.078125 2.265625 0.078125 Z M 2.171875 -3.640625 C 1.890625 -3.640625 1.648438 -3.535156 1.453125 -3.328125 C 1.253906 -3.117188 1.132812 -2.828125 1.09375 -2.453125 L 3.171875 -2.453125 L 3.171875 -2.515625 C 3.148438 -2.867188 3.050781 -3.144531 2.875 -3.34375 C 2.707031 -3.539062 2.472656 -3.640625 2.171875 -3.640625 Z M 2.171875 -3.640625 "/></g></g></g><g fill="#ffffff" fill-opacity="1"><g transform="translate(41.86178, 25.290331)"><g><path d="M 1.3125 0 L 0.59375 0 L 0.59375 -5.890625 L 1.3125 -5.890625 Z M 1.3125 0 "/></g></g></g><g clip-path="url(#801867c7c1)"><g fill="#004aad" fill-opacity="1"><g transform="translate(5.88068, 18.037758)"><g><path d="M 1.046875 0.40625 L 0 0.40625 L 0 0.234375 L 1.046875 0.234375 Z M 1.046875 0.40625 "/></g></g><g transform="translate(6.918938, 18.037758)"><g><path d="M 1.046875 0.40625 L 0 0.40625 L 0 0.234375 L 1.046875 0.234375 Z M 1.046875 0.40625 "/></g></g><g transform="translate(7.957196, 18.037758)"><g><path d="M 1.046875 0.40625 L 0 0.40625 L 0 0.234375 L 1.046875 0.234375 Z M 1.046875 0.40625 "/></g></g><g transform="translate(8.995454, 18.037758)"><g><path d="M 1.046875 0.40625 L 0 0.40625 L 0 0.234375 L 1.046875 0.234375 Z M 1.046875 0.40625 "/></g></g><g transform="translate(10.033711, 18.037758)"><g><path d="M 1.046875 0.40625 L 0 0.40625 L 0 0.234375 L 1.046875 0.234375 Z M 1.046875 0.40625 "/></g></g><g transform="translate(11.071969, 18.037758)"><g><path d="M 1.046875 0.40625 L 0 0.40625 L 0 0.234375 L 1.046875 0.234375 Z M 1.046875 0.40625 "/></g></g><g transform="translate(12.110227, 18.037758)"><g><path d="M 1.046875 0.40625 L 0 0.40625 L 0 0.234375 L 1.046875 0.234375 Z M 1.046875 0.40625 "/></g></g><g transform="translate(13.148485, 18.037758)"><g><path d="M 1.046875 0.40625 L 0 0.40625 L 0 0.234375 L 1.046875 0.234375 Z M 1.046875 0.40625 "/></g></g><g transform="translate(14.186742, 18.037758)"><g><path d="M 1.046875 0.40625 L 0 0.40625 L 0 0.234375 L 1.046875 0.234375 Z M 1.046875 0.40625 "/></g></g><g transform="translate(15.225, 18.037758)"><g><path d="M 1.046875 0.40625 L 0 0.40625 L 0 0.234375 L 1.046875 0.234375 Z M 1.046875 0.40625 "/></g></g><g transform="translate(16.263258, 18.037758)"><g><path d="M 1.046875 0.40625 L 0 0.40625 L 0 0.234375 L 1.046875 0.234375 Z M 1.046875 0.40625 "/></g></g><g transform="translate(17.301516, 18.037758)"><g><path d="M 1.046875 0.40625 L 0 0.40625 L 0 0.234375 L 1.046875 0.234375 Z M 1.046875 0.40625 "/></g></g><g transform="translate(18.339774, 18.037758)"><g><path d="M 1.046875 0.40625 L 0 0.40625 L 0 0.234375 L 1.046875 0.234375 Z M 1.046875 0.40625 "/></g></g><g transform="translate(19.378031, 18.037758)"><g><path d="M 1.046875 0.40625 L 0 0.40625 L 0 0.234375 L 1.046875 0.234375 Z M 1.046875 0.40625 "/></g></g><g transform="translate(20.416289, 18.037758)"><g><path d="M 1.046875 0.40625 L 0 0.40625 L 0 0.234375 L 1.046875 0.234375 Z M 1.046875 0.40625 "/></g></g><g transform="translate(21.454547, 18.037758)"><g><path d="M 1.046875 0.40625 L 0 0.40625 L 0 0.234375 L 1.046875 0.234375 Z M 1.046875 0.40625 "/></g></g><g transform="translate(22.492805, 18.037758)"><g><path d="M 1.046875 0.40625 L 0 0.40625 L 0 0.234375 L 1.046875 0.234375 Z M 1.046875 0.40625 "/></g></g><g transform="translate(23.531063, 18.037758)"><g><path d="M 1.046875 0.40625 L 0 0.40625 L 0 0.234375 L 1.046875 0.234375 Z M 1.046875 0.40625 "/></g></g><g transform="translate(24.56932, 18.037758)"><g><path d="M 1.046875 0.40625 L 0 0.40625 L 0 0.234375 L 1.046875 0.234375 Z M 1.046875 0.40625 "/></g></g><g transform="translate(25.607578, 18.037758)"><g><path d="M 1.046875 0.40625 L 0 0.40625 L 0 0.234375 L 1.046875 0.234375 Z M 1.046875 0.40625 "/></g></g><g transform="translate(26.645836, 18.037758)"><g><path d="M 1.046875 0.40625 L 0 0.40625 L 0 0.234375 L 1.046875 0.234375 Z M 1.046875 0.40625 "/></g></g><g transform="translate(27.684094, 18.037758)"><g><path d="M 1.046875 0.40625 L 0 0.40625 L 0 0.234375 L 1.046875 0.234375 Z M 1.046875 0.40625 "/></g></g><g transform="translate(28.722351, 18.037758)"><g><path d="M 1.046875 0.40625 L 0 0.40625 L 0 0.234375 L 1.046875 0.234375 Z M 1.046875 0.40625 "/></g></g><g transform="translate(29.760609, 18.037758)"><g><path d="M 1.046875 0.40625 L 0 0.40625 L 0 0.234375 L 1.046875 0.234375 Z M 1.046875 0.40625 "/></g></g><g transform="translate(30.798867, 18.037758)"><g><path d="M 1.046875 0.40625 L 0 0.40625 L 0 0.234375 L 1.046875 0.234375 Z M 1.046875 0.40625 "/></g></g><g transform="translate(31.837125, 18.037758)"><g><path d="M 1.046875 0.40625 L 0 0.40625 L 0 0.234375 L 1.046875 0.234375 Z M 1.046875 0.40625 "/></g></g><g transform="translate(32.875383, 18.037758)"><g><path d="M 1.046875 0.40625 L 0 0.40625 L 0 0.234375 L 1.046875 0.234375 Z M 1.046875 0.40625 "/></g></g><g transform="translate(33.91364, 18.037758)"><g><path d="M 1.046875 0.40625 L 0 0.40625 L 0 0.234375 L 1.046875 0.234375 Z M 1.046875 0.40625 "/></g></g><g transform="translate(34.951898, 18.037758)"><g><path d="M 1.046875 0.40625 L 0 0.40625 L 0 0.234375 L 1.046875 0.234375 Z M 1.046875 0.40625 "/></g></g><g transform="translate(35.990156, 18.037758)"><g><path d="M 1.046875 0.40625 L 0 0.40625 L 0 0.234375 L 1.046875 0.234375 Z M 1.046875 0.40625 "/></g></g><g transform="translate(37.028414, 18.037758)"><g><path d="M 1.046875 0.40625 L 0 0.40625 L 0 0.234375 L 1.046875 0.234375 Z M 1.046875 0.40625 "/></g></g><g transform="translate(38.066671, 18.037758)"><g><path d="M 1.046875 0.40625 L 0 0.40625 L 0 0.234375 L 1.046875 0.234375 Z M 1.046875 0.40625 "/></g></g><g transform="translate(39.104929, 18.037758)"><g><path d="M 1.046875 0.40625 L 0 0.40625 L 0 0.234375 L 1.046875 0.234375 Z M 1.046875 0.40625 "/></g></g><g transform="translate(40.143187, 18.037758)"><g><path d="M 1.046875 0.40625 L 0 0.40625 L 0 0.234375 L 1.046875 0.234375 Z M 1.046875 0.40625 "/></g></g><g transform="translate(41.181445, 18.037758)"><g><path d="M 1.046875 0.40625 L 0 0.40625 L 0 0.234375 L 1.046875 0.234375 Z M 1.046875 0.40625 "/></g></g><g transform="translate(42.219703, 18.037758)"><g><path d="M 1.046875 0.40625 L 0 0.40625 L 0 0.234375 L 1.046875 0.234375 Z M 1.046875 0.40625 "/></g></g><g transform="translate(43.25796, 18.037758)"><g><path d="M 1.046875 0.40625 L 0 0.40625 L 0 0.234375 L 1.046875 0.234375 Z M 1.046875 0.40625 "/></g></g></g></g><path fill="#38b6ff" d="M 11.519531 12.910156 C 11.597656 12.878906 11.644531 12.859375 11.695312 12.84375 C 11.695312 12.835938 11.695312 12.828125 11.691406 12.820312 C 11.625 12.816406 11.558594 12.8125 11.492188 12.808594 C 11.488281 12.71875 11.539062 12.671875 11.597656 12.640625 C 11.882812 12.488281 12.175781 12.433594 12.464844 12.632812 C 12.578125 12.710938 12.691406 12.789062 12.808594 12.867188 C 12.96875 12.976562 13.089844 13.261719 12.976562 13.492188 C 12.875 13.695312 12.710938 13.8125 12.523438 13.90625 C 12.199219 14.0625 11.84375 14.113281 11.496094 14.195312 C 11.277344 14.25 11.058594 14.308594 10.84375 14.375 C 10.75 14.402344 10.664062 14.449219 10.582031 14.503906 C 10.332031 14.667969 10.335938 14.90625 10.464844 15.105469 C 10.527344 15.195312 10.625 15.265625 10.714844 15.328125 C 10.792969 15.386719 10.882812 15.417969 10.976562 15.46875 C 10.875 15.519531 10.78125 15.570312 10.683594 15.617188 C 10.664062 15.628906 10.636719 15.632812 10.613281 15.625 C 10.328125 15.542969 10.046875 15.1875 10.027344 14.882812 C 10.011719 14.644531 10.09375 14.445312 10.265625 14.285156 C 10.417969 14.144531 10.589844 14.035156 10.789062 13.964844 C 11.03125 13.878906 11.277344 13.789062 11.523438 13.707031 C 11.742188 13.636719 11.964844 13.582031 12.183594 13.511719 C 12.28125 13.484375 12.375 13.445312 12.460938 13.394531 C 12.582031 13.320312 12.582031 13.203125 12.472656 13.117188 C 12.410156 13.066406 12.347656 13.035156 12.253906 13.054688 C 12.070312 13.089844 11.886719 13.066406 11.710938 13.003906 C 11.652344 12.984375 11.597656 12.949219 11.519531 12.910156 Z M 11.867188 12.632812 C 11.863281 12.632812 11.855469 12.632812 11.851562 12.632812 C 11.796875 12.640625 11.808594 12.722656 11.863281 12.726562 C 11.863281 12.726562 11.867188 12.726562 11.867188 12.726562 C 11.925781 12.726562 11.925781 12.636719 11.867188 12.632812 Z M 11.867188 12.632812 " fill-opacity="1" fill-rule="nonzero"/><g clip-path="url(#d2dfc1e383)"><path fill="#38b6ff" d="M 11.652344 12.25 C 11.671875 12.167969 11.703125 12.089844 11.714844 12.007812 C 11.742188 11.722656 11.757812 11.4375 11.789062 11.15625 C 11.800781 11.042969 11.832031 10.933594 11.863281 10.824219 C 12.039062 10.242188 12.476562 9.9375 13.046875 9.890625 C 13.578125 9.851562 14.113281 9.835938 14.644531 9.808594 C 15.003906 9.792969 15.367188 9.773438 15.71875 9.6875 C 15.808594 9.667969 15.894531 9.644531 16.015625 9.613281 C 15.976562 9.6875 15.953125 9.738281 15.921875 9.78125 C 15.820312 9.902344 15.6875 9.96875 15.539062 10.015625 C 15.269531 10.097656 14.992188 10.132812 14.710938 10.140625 C 14.261719 10.148438 13.8125 10.152344 13.363281 10.164062 C 13.265625 10.164062 13.171875 10.179688 13.074219 10.199219 C 12.578125 10.300781 12.234375 10.585938 12.070312 11.066406 C 11.992188 11.292969 11.949219 11.53125 11.886719 11.761719 C 11.851562 11.894531 11.8125 12.027344 11.761719 12.15625 C 11.746094 12.195312 11.730469 12.265625 11.652344 12.246094 Z M 11.652344 12.25 " fill-opacity="1" fill-rule="nonzero"/></g><g clip-path="url(#cfd76ef25e)"><path fill="#38b6ff" d="M 10.628906 12.253906 C 10.539062 12.222656 10.515625 12.136719 10.488281 12.0625 C 10.445312 11.917969 10.414062 11.769531 10.378906 11.621094 C 10.339844 11.46875 10.308594 11.3125 10.261719 11.160156 C 10.058594 10.535156 9.636719 10.203125 8.984375 10.167969 C 8.574219 10.144531 8.160156 10.144531 7.75 10.140625 C 7.4375 10.140625 7.132812 10.117188 6.828125 10.039062 C 6.679688 10 6.542969 9.941406 6.429688 9.835938 C 6.367188 9.78125 6.3125 9.71875 6.296875 9.625 C 6.484375 9.664062 6.65625 9.714844 6.832031 9.734375 C 7.125 9.769531 7.417969 9.792969 7.710938 9.808594 C 8.21875 9.839844 8.730469 9.859375 9.242188 9.890625 C 9.46875 9.902344 9.679688 9.96875 9.875 10.085938 C 10.222656 10.289062 10.398438 10.609375 10.476562 10.988281 C 10.515625 11.195312 10.527344 11.410156 10.554688 11.625 C 10.578125 11.835938 10.601562 12.046875 10.628906 12.257812 Z M 10.628906 12.253906 " fill-opacity="1" fill-rule="nonzero"/></g><path fill="#38b6ff" d="M 10.804688 12.8125 L 10.601562 12.8125 C 10.597656 12.828125 10.597656 12.824219 10.597656 12.835938 C 10.648438 12.859375 10.699219 12.878906 10.757812 12.902344 C 10.664062 12.988281 10.5625 13.035156 10.449219 13.042969 C 10.300781 13.054688 10.148438 13.050781 10 13.046875 C 9.914062 13.042969 9.761719 13.132812 9.746094 13.21875 C 9.742188 13.253906 9.753906 13.304688 9.777344 13.332031 C 9.820312 13.375 9.871094 13.421875 9.925781 13.441406 C 10.078125 13.5 10.234375 13.550781 10.390625 13.601562 C 10.558594 13.652344 10.726562 13.699219 10.894531 13.75 C 10.90625 13.753906 10.914062 13.761719 10.929688 13.773438 C 10.78125 13.847656 10.628906 13.902344 10.492188 13.992188 C 10.367188 14.074219 10.25 14.074219 10.109375 14.035156 C 9.894531 13.972656 9.703125 13.875 9.527344 13.75 C 9.40625 13.664062 9.332031 13.542969 9.285156 13.402344 C 9.226562 13.226562 9.320312 12.984375 9.496094 12.863281 C 9.597656 12.789062 9.703125 12.722656 9.804688 12.648438 C 10.09375 12.4375 10.386719 12.480469 10.683594 12.628906 C 10.765625 12.671875 10.777344 12.699219 10.804688 12.8125 Z M 10.398438 12.714844 C 10.429688 12.738281 10.441406 12.738281 10.46875 12.710938 C 10.492188 12.683594 10.480469 12.644531 10.449219 12.632812 C 10.441406 12.632812 10.433594 12.632812 10.425781 12.632812 C 10.382812 12.632812 10.367188 12.6875 10.398438 12.714844 Z M 10.398438 12.714844 " fill-opacity="1" fill-rule="nonzero"/><path fill="#38b6ff" d="M 11.410156 14.328125 C 11.5625 14.296875 11.714844 14.265625 11.863281 14.230469 C 11.921875 14.214844 11.964844 14.226562 12.011719 14.265625 C 12.316406 14.535156 12.359375 14.976562 12.109375 15.296875 C 12.011719 15.421875 11.890625 15.519531 11.75 15.589844 C 11.570312 15.675781 11.382812 15.75 11.199219 15.832031 C 11.085938 15.882812 10.964844 15.925781 10.859375 15.992188 C 10.589844 16.160156 10.566406 16.433594 10.796875 16.652344 C 10.867188 16.71875 10.945312 16.773438 11.035156 16.84375 C 10.972656 16.882812 10.917969 16.921875 10.855469 16.964844 C 10.679688 16.882812 10.527344 16.773438 10.4375 16.597656 C 10.304688 16.332031 10.351562 16.023438 10.585938 15.832031 C 10.695312 15.742188 10.828125 15.671875 10.960938 15.609375 C 11.121094 15.53125 11.292969 15.472656 11.457031 15.394531 C 11.554688 15.347656 11.652344 15.285156 11.738281 15.214844 C 11.828125 15.148438 11.878906 15.046875 11.902344 14.9375 C 11.9375 14.785156 11.898438 14.652344 11.777344 14.554688 C 11.699219 14.492188 11.605469 14.449219 11.519531 14.398438 C 11.484375 14.378906 11.445312 14.367188 11.40625 14.351562 C 11.410156 14.34375 11.410156 14.335938 11.410156 14.328125 Z M 11.410156 14.328125 " fill-opacity="1" fill-rule="nonzero"/><g clip-path="url(#aba95fcef5)"><path fill="#38b6ff" d="M 9.878906 10.929688 C 9.589844 10.804688 9.308594 10.773438 9.023438 10.769531 C 8.628906 10.761719 8.234375 10.753906 7.839844 10.746094 C 7.59375 10.738281 7.355469 10.703125 7.125 10.621094 C 6.988281 10.574219 6.871094 10.503906 6.789062 10.386719 C 6.757812 10.34375 6.738281 10.296875 6.710938 10.242188 C 6.914062 10.269531 7.097656 10.304688 7.285156 10.316406 C 7.664062 10.34375 8.046875 10.355469 8.429688 10.371094 C 8.71875 10.386719 9.007812 10.394531 9.289062 10.472656 C 9.429688 10.511719 9.5625 10.574219 9.691406 10.640625 C 9.789062 10.695312 9.859375 10.789062 9.878906 10.929688 Z M 9.878906 10.929688 " fill-opacity="1" fill-rule="nonzero"/></g><g clip-path="url(#ed622c065b)"><path fill="#38b6ff" d="M 15.578125 10.242188 C 15.53125 10.398438 15.433594 10.5 15.300781 10.5625 C 15.175781 10.621094 15.042969 10.664062 14.910156 10.691406 C 14.75 10.722656 14.585938 10.738281 14.421875 10.746094 C 14.101562 10.757812 13.777344 10.757812 13.453125 10.765625 C 13.105469 10.769531 12.757812 10.777344 12.417969 10.929688 C 12.429688 10.820312 12.476562 10.75 12.539062 10.691406 C 12.648438 10.589844 12.777344 10.535156 12.914062 10.492188 C 13.214844 10.40625 13.527344 10.386719 13.835938 10.375 C 14.226562 10.355469 14.617188 10.34375 15.003906 10.316406 C 15.191406 10.304688 15.375 10.269531 15.578125 10.242188 Z M 15.578125 10.242188 " fill-opacity="1" fill-rule="nonzero"/></g><g clip-path="url(#c6d6e53d63)"><path fill="#38b6ff" d="M 11.140625 10.398438 C 10.847656 10.398438 10.617188 10.164062 10.613281 9.871094 C 10.613281 9.574219 10.859375 9.332031 11.152344 9.335938 C 11.449219 9.339844 11.6875 9.585938 11.683594 9.882812 C 11.675781 10.171875 11.433594 10.402344 11.140625 10.398438 Z M 11.140625 10.398438 " fill-opacity="1" fill-rule="nonzero"/></g><path fill="#38b6ff" d="M 10.988281 10.871094 C 11.097656 10.871094 11.199219 10.871094 11.3125 10.871094 C 11.3125 10.917969 11.3125 10.960938 11.3125 11 C 11.304688 11.707031 11.296875 12.410156 11.285156 13.113281 C 11.285156 13.277344 11.277344 13.441406 11.28125 13.605469 C 11.28125 13.671875 11.261719 13.714844 11.191406 13.726562 C 11.140625 13.738281 11.09375 13.757812 11.03125 13.777344 C 11.023438 13.710938 11.011719 13.652344 11.011719 13.589844 C 11 12.71875 10.988281 11.847656 10.980469 10.972656 C 10.980469 10.941406 10.984375 10.910156 10.988281 10.871094 Z M 10.988281 10.871094 " fill-opacity="1" fill-rule="nonzero"/><path fill="#38b6ff" d="M 14.691406 10.863281 C 14.644531 11.054688 14.535156 11.175781 14.378906 11.25 C 14.199219 11.332031 14.011719 11.371094 13.816406 11.375 C 13.539062 11.386719 13.261719 11.390625 12.984375 11.398438 C 12.71875 11.402344 12.457031 11.421875 12.203125 11.558594 C 12.21875 11.398438 12.300781 11.300781 12.414062 11.222656 C 12.558594 11.121094 12.722656 11.070312 12.894531 11.050781 C 13.089844 11.027344 13.285156 11.015625 13.484375 11 C 13.800781 10.972656 14.117188 10.953125 14.4375 10.921875 C 14.515625 10.917969 14.589844 10.886719 14.691406 10.863281 Z M 14.691406 10.863281 " fill-opacity="1" fill-rule="nonzero"/><path fill="#38b6ff" d="M 10.097656 11.5625 C 9.851562 11.429688 9.605469 11.402344 9.355469 11.398438 C 9.058594 11.390625 8.757812 11.386719 8.460938 11.375 C 8.277344 11.371094 8.09375 11.332031 7.925781 11.253906 C 7.765625 11.179688 7.65625 11.058594 7.609375 10.886719 C 7.621094 10.878906 7.628906 10.871094 7.632812 10.871094 C 7.984375 10.972656 8.34375 10.972656 8.703125 10.996094 C 8.9375 11.011719 9.171875 11.023438 9.40625 11.050781 C 9.570312 11.070312 9.726562 11.117188 9.867188 11.210938 C 9.988281 11.289062 10.070312 11.390625 10.097656 11.5625 Z M 10.097656 11.5625 " fill-opacity="1" fill-rule="nonzero"/><path fill="#38b6ff" d="M 12.089844 12.121094 C 12.113281 11.929688 12.210938 11.824219 12.351562 11.746094 C 12.5 11.664062 12.667969 11.636719 12.835938 11.625 C 13.070312 11.605469 13.304688 11.601562 13.535156 11.578125 C 13.691406 11.5625 13.839844 11.53125 14.003906 11.503906 C 13.984375 11.644531 13.90625 11.757812 13.773438 11.835938 C 13.636719 11.914062 13.484375 11.949219 13.328125 11.953125 C 13.117188 11.964844 12.910156 11.96875 12.699219 11.972656 C 12.492188 11.976562 12.289062 11.996094 12.089844 12.121094 Z M 12.089844 12.121094 " fill-opacity="1" fill-rule="nonzero"/><path fill="#38b6ff" d="M 8.292969 11.488281 C 8.667969 11.617188 9.058594 11.585938 9.4375 11.621094 C 9.613281 11.640625 9.789062 11.664062 9.945312 11.75 C 10.085938 11.824219 10.183594 11.929688 10.203125 12.113281 C 9.882812 11.925781 9.535156 11.988281 9.203125 11.960938 C 9.054688 11.949219 8.902344 11.949219 8.753906 11.921875 C 8.535156 11.882812 8.363281 11.773438 8.296875 11.542969 C 8.292969 11.527344 8.292969 11.511719 8.292969 11.488281 Z M 8.292969 11.488281 " fill-opacity="1" fill-rule="nonzero"/><g clip-path="url(#f45bd12ad0)"><path fill="#38b6ff" d="M 10.832031 18.101562 C 10.566406 17.96875 10.472656 17.589844 10.652344 17.332031 C 10.730469 17.21875 10.839844 17.128906 10.945312 17.042969 C 11.054688 16.957031 11.179688 16.890625 11.292969 16.8125 C 11.371094 16.757812 11.449219 16.699219 11.515625 16.632812 C 11.722656 16.429688 11.699219 16.179688 11.46875 16.007812 C 11.421875 15.976562 11.375 15.949219 11.316406 15.910156 C 11.429688 15.863281 11.535156 15.820312 11.636719 15.777344 C 11.972656 15.980469 12.054688 16.480469 11.703125 16.796875 C 11.625 16.863281 11.53125 16.917969 11.4375 16.96875 C 11.320312 17.035156 11.195312 17.09375 11.074219 17.160156 C 11.007812 17.195312 10.941406 17.238281 10.882812 17.285156 C 10.632812 17.488281 10.597656 17.796875 10.800781 18.050781 C 10.8125 18.066406 10.816406 18.085938 10.828125 18.105469 Z M 10.832031 18.101562 " fill-opacity="1" fill-rule="nonzero"/></g><path fill="#38b6ff" d="M 10.40625 10.289062 C 10.574219 10.398438 10.746094 10.496094 10.949219 10.527344 C 11.28125 10.574219 11.578125 10.507812 11.847656 10.308594 C 11.867188 10.292969 11.894531 10.285156 11.921875 10.277344 L 11.917969 10.273438 C 11.621094 10.863281 10.855469 10.945312 10.46875 10.425781 C 10.441406 10.386719 10.421875 10.339844 10.398438 10.296875 C 10.402344 10.292969 10.40625 10.289062 10.40625 10.289062 Z M 10.40625 10.289062 " fill-opacity="1" fill-rule="nonzero"/><path fill="#38b6ff" d="M 11.25 15.394531 C 11.179688 15.421875 11.125 15.445312 11.050781 15.472656 C 11.042969 15.105469 11.039062 14.757812 11.03125 14.398438 C 11.105469 14.378906 11.171875 14.359375 11.25 14.339844 C 11.25 14.699219 11.25 15.046875 11.25 15.394531 Z M 11.25 15.394531 " fill-opacity="1" fill-rule="nonzero"/><path fill="#38b6ff" d="M 11.078125 16.835938 C 11.078125 16.546875 11.078125 16.265625 11.078125 15.96875 C 11.117188 15.953125 11.167969 15.933594 11.226562 15.910156 C 11.230469 15.949219 11.234375 15.980469 11.234375 16.011719 C 11.230469 16.226562 11.21875 16.4375 11.222656 16.652344 C 11.222656 16.753906 11.1875 16.808594 11.078125 16.835938 Z M 11.078125 16.835938 " fill-opacity="1" fill-rule="nonzero"/><path fill="#38b6ff" d="M 11.089844 17.476562 C 11.089844 17.433594 11.09375 17.386719 11.085938 17.339844 C 11.074219 17.257812 11.109375 17.214844 11.207031 17.195312 " fill-opacity="1" fill-rule="nonzero"/><g clip-path="url(#bf065d6df8)"><path fill="#38b6ff" d="M 11.460938 18.097656 C 11.53125 18.015625 11.589844 17.925781 11.613281 17.816406 C 11.652344 17.597656 11.589844 17.421875 11.414062 17.285156 C 11.371094 17.25 11.328125 17.21875 11.273438 17.179688 C 11.332031 17.152344 11.378906 17.128906 11.421875 17.105469 C 11.722656 17.304688 11.820312 17.632812 11.660156 17.914062 C 11.613281 17.992188 11.566406 18.085938 11.457031 18.09375 Z M 11.460938 18.097656 " fill-opacity="1" fill-rule="nonzero"/></g><path fill="#38b6ff" d="M 10.398438 10.296875 C 10.394531 10.289062 10.390625 10.28125 10.386719 10.273438 C 10.394531 10.277344 10.402344 10.28125 10.40625 10.289062 C 10.40625 10.289062 10.402344 10.292969 10.398438 10.296875 Z M 10.398438 10.296875 " fill-opacity="1" fill-rule="nonzero"/><path fill="#38b6ff" d="M 10.628906 12.257812 C 10.628906 12.257812 10.632812 12.261719 10.636719 12.261719 C 10.636719 12.257812 10.632812 12.257812 10.628906 12.253906 Z M 10.628906 12.257812 " fill-opacity="1" fill-rule="nonzero"/><path fill="#38b6ff" d="M 11.652344 12.246094 C 11.652344 12.25 11.65625 12.25 11.65625 12.253906 C 11.65625 12.253906 11.652344 12.25 11.652344 12.25 Z M 11.652344 12.246094 " fill-opacity="1" fill-rule="nonzero"/><g clip-path="url(#b1bb05e8a5)"><path fill="#38b6ff" d="M 10.828125 18.105469 C 10.832031 18.105469 10.835938 18.109375 10.84375 18.109375 C 10.839844 18.109375 10.835938 18.113281 10.835938 18.109375 C 10.832031 18.109375 10.832031 18.105469 10.832031 18.101562 Z M 10.828125 18.105469 " fill-opacity="1" fill-rule="nonzero"/></g><g clip-path="url(#4f6a68c9db)"><path fill="#38b6ff" d="M 11.457031 18.09375 C 11.453125 18.101562 11.453125 18.105469 11.453125 18.113281 C 11.453125 18.109375 11.449219 18.109375 11.453125 18.105469 C 11.453125 18.101562 11.457031 18.101562 11.460938 18.097656 Z M 11.457031 18.09375 " fill-opacity="1" fill-rule="nonzero"/></g><path fill="#ffffff" d="M 11.820312 12.910156 C 11.898438 12.878906 11.949219 12.859375 12 12.84375 C 11.996094 12.835938 11.996094 12.828125 11.996094 12.820312 C 11.929688 12.816406 11.863281 12.8125 11.796875 12.808594 C 11.789062 12.71875 11.839844 12.671875 11.898438 12.640625 C 12.1875 12.488281 12.476562 12.433594 12.769531 12.632812 C 12.882812 12.710938 12.996094 12.789062 13.109375 12.867188 C 13.273438 12.976562 13.394531 13.261719 13.277344 13.492188 C 13.179688 13.695312 13.015625 13.8125 12.824219 13.90625 C 12.5 14.0625 12.144531 14.113281 11.800781 14.195312 C 11.578125 14.25 11.359375 14.308594 11.144531 14.375 C 11.054688 14.402344 10.964844 14.449219 10.886719 14.503906 C 10.636719 14.667969 10.636719 14.90625 10.769531 15.105469 C 10.828125 15.195312 10.925781 15.265625 11.015625 15.328125 C 11.09375 15.386719 11.1875 15.417969 11.28125 15.46875 C 11.179688 15.519531 11.082031 15.570312 10.988281 15.617188 C 10.964844 15.628906 10.9375 15.632812 10.917969 15.625 C 10.628906 15.542969 10.351562 15.1875 10.328125 14.882812 C 10.3125 14.644531 10.398438 14.445312 10.570312 14.285156 C 10.722656 14.144531 10.894531 14.035156 11.089844 13.964844 C 11.335938 13.878906 11.578125 13.789062 11.828125 13.707031 C 12.046875 13.636719 12.269531 13.582031 12.488281 13.511719 C 12.582031 13.484375 12.679688 13.445312 12.761719 13.394531 C 12.882812 13.320312 12.886719 13.203125 12.777344 13.117188 C 12.714844 13.066406 12.648438 13.035156 12.558594 13.054688 C 12.375 13.089844 12.191406 13.066406 12.011719 13.003906 C 11.953125 12.984375 11.902344 12.949219 11.820312 12.910156 Z M 12.167969 12.632812 C 12.164062 12.632812 12.160156 12.632812 12.15625 12.632812 C 12.101562 12.640625 12.109375 12.722656 12.164062 12.726562 C 12.167969 12.726562 12.167969 12.726562 12.171875 12.726562 C 12.230469 12.726562 12.226562 12.636719 12.167969 12.632812 Z M 12.167969 12.632812 " fill-opacity="1" fill-rule="nonzero"/><g clip-path="url(#7df518a866)"><path fill="#ffffff" d="M 11.957031 12.25 C 11.976562 12.167969 12.007812 12.089844 12.015625 12.007812 C 12.046875 11.722656 12.0625 11.4375 12.09375 11.15625 C 12.105469 11.042969 12.132812 10.933594 12.167969 10.824219 C 12.34375 10.242188 12.78125 9.9375 13.351562 9.890625 C 13.882812 9.851562 14.414062 9.835938 14.949219 9.808594 C 15.308594 9.792969 15.667969 9.773438 16.023438 9.6875 C 16.109375 9.667969 16.199219 9.644531 16.320312 9.613281 C 16.277344 9.6875 16.257812 9.738281 16.222656 9.78125 C 16.125 9.902344 15.988281 9.96875 15.84375 10.015625 C 15.574219 10.097656 15.292969 10.132812 15.011719 10.140625 C 14.5625 10.148438 14.113281 10.152344 13.664062 10.164062 C 13.570312 10.164062 13.472656 10.179688 13.378906 10.199219 C 12.882812 10.300781 12.539062 10.585938 12.371094 11.066406 C 12.292969 11.292969 12.253906 11.53125 12.191406 11.761719 C 12.15625 11.894531 12.113281 12.027344 12.066406 12.15625 C 12.050781 12.195312 12.03125 12.265625 11.953125 12.246094 Z M 11.957031 12.25 " fill-opacity="1" fill-rule="nonzero"/></g><g clip-path="url(#838b316706)"><path fill="#ffffff" d="M 10.933594 12.253906 C 10.839844 12.222656 10.816406 12.136719 10.792969 12.0625 C 10.746094 11.917969 10.71875 11.769531 10.679688 11.621094 C 10.644531 11.46875 10.613281 11.3125 10.5625 11.160156 C 10.359375 10.535156 9.941406 10.203125 9.285156 10.167969 C 8.875 10.144531 8.464844 10.144531 8.054688 10.140625 C 7.742188 10.140625 7.433594 10.117188 7.132812 10.039062 C 6.984375 10 6.84375 9.941406 6.730469 9.835938 C 6.671875 9.78125 6.617188 9.71875 6.601562 9.625 C 6.785156 9.664062 6.960938 9.714844 7.136719 9.734375 C 7.425781 9.769531 7.71875 9.792969 8.011719 9.808594 C 8.523438 9.839844 9.035156 9.859375 9.546875 9.890625 C 9.769531 9.902344 9.980469 9.96875 10.175781 10.085938 C 10.523438 10.289062 10.703125 10.609375 10.777344 10.988281 C 10.820312 11.195312 10.832031 11.410156 10.855469 11.625 C 10.882812 11.835938 10.90625 12.046875 10.929688 12.257812 Z M 10.933594 12.253906 " fill-opacity="1" fill-rule="nonzero"/></g><path fill="#ffffff" d="M 11.109375 12.8125 L 10.902344 12.8125 C 10.902344 12.828125 10.902344 12.824219 10.898438 12.835938 C 10.949219 12.859375 11 12.878906 11.058594 12.902344 C 10.96875 12.988281 10.863281 13.035156 10.753906 13.042969 C 10.601562 13.054688 10.453125 13.050781 10.300781 13.046875 C 10.214844 13.042969 10.0625 13.132812 10.050781 13.21875 C 10.046875 13.253906 10.058594 13.304688 10.082031 13.332031 C 10.121094 13.375 10.171875 13.421875 10.230469 13.441406 C 10.378906 13.5 10.535156 13.550781 10.691406 13.601562 C 10.859375 13.652344 11.03125 13.699219 11.199219 13.75 C 11.207031 13.753906 11.21875 13.761719 11.230469 13.773438 C 11.082031 13.847656 10.929688 13.902344 10.796875 13.992188 C 10.667969 14.074219 10.554688 14.074219 10.410156 14.035156 C 10.199219 13.972656 10.007812 13.875 9.828125 13.75 C 9.707031 13.664062 9.632812 13.542969 9.589844 13.402344 C 9.53125 13.226562 9.625 12.984375 9.796875 12.863281 C 9.902344 12.789062 10.003906 12.722656 10.105469 12.648438 C 10.398438 12.4375 10.691406 12.480469 10.984375 12.628906 C 11.070312 12.671875 11.082031 12.699219 11.109375 12.8125 Z M 10.703125 12.714844 C 10.730469 12.738281 10.746094 12.738281 10.769531 12.710938 C 10.792969 12.683594 10.78125 12.644531 10.75 12.632812 C 10.742188 12.632812 10.734375 12.632812 10.726562 12.632812 C 10.6875 12.632812 10.667969 12.6875 10.703125 12.714844 Z M 10.703125 12.714844 " fill-opacity="1" fill-rule="nonzero"/><path fill="#ffffff" d="M 11.714844 14.328125 C 11.863281 14.296875 12.015625 14.265625 12.167969 14.230469 C 12.226562 14.214844 12.269531 14.226562 12.316406 14.265625 C 12.617188 14.535156 12.660156 14.976562 12.410156 15.296875 C 12.316406 15.421875 12.195312 15.519531 12.054688 15.589844 C 11.871094 15.675781 11.683594 15.75 11.5 15.832031 C 11.386719 15.882812 11.265625 15.925781 11.160156 15.992188 C 10.890625 16.160156 10.867188 16.433594 11.101562 16.652344 C 11.171875 16.71875 11.25 16.773438 11.335938 16.84375 C 11.277344 16.882812 11.21875 16.921875 11.160156 16.964844 C 10.980469 16.882812 10.832031 16.773438 10.742188 16.597656 C 10.605469 16.332031 10.65625 16.023438 10.886719 15.832031 C 11 15.742188 11.132812 15.671875 11.261719 15.609375 C 11.421875 15.53125 11.597656 15.472656 11.757812 15.394531 C 11.859375 15.347656 11.953125 15.285156 12.042969 15.214844 C 12.132812 15.148438 12.179688 15.046875 12.203125 14.9375 C 12.238281 14.785156 12.203125 14.652344 12.078125 14.554688 C 12 14.492188 11.910156 14.449219 11.824219 14.398438 C 11.789062 14.378906 11.75 14.367188 11.710938 14.351562 C 11.710938 14.34375 11.710938 14.335938 11.714844 14.328125 Z M 11.714844 14.328125 " fill-opacity="1" fill-rule="nonzero"/><path fill="#ffffff" d="M 10.179688 10.929688 C 9.894531 10.804688 9.609375 10.773438 9.324219 10.769531 C 8.929688 10.761719 8.535156 10.753906 8.140625 10.746094 C 7.898438 10.738281 7.65625 10.703125 7.425781 10.621094 C 7.292969 10.574219 7.175781 10.503906 7.089844 10.386719 C 7.0625 10.34375 7.042969 10.296875 7.015625 10.242188 C 7.21875 10.269531 7.402344 10.304688 7.585938 10.316406 C 7.96875 10.34375 8.351562 10.355469 8.730469 10.371094 C 9.019531 10.386719 9.3125 10.394531 9.589844 10.472656 C 9.730469 10.511719 9.867188 10.574219 9.992188 10.640625 C 10.09375 10.695312 10.160156 10.789062 10.179688 10.929688 Z M 10.179688 10.929688 " fill-opacity="1" fill-rule="nonzero"/><path fill="#ffffff" d="M 15.878906 10.242188 C 15.835938 10.398438 15.734375 10.5 15.605469 10.5625 C 15.480469 10.621094 15.347656 10.664062 15.210938 10.691406 C 15.050781 10.722656 14.886719 10.738281 14.726562 10.746094 C 14.402344 10.757812 14.078125 10.757812 13.757812 10.765625 C 13.410156 10.769531 13.0625 10.777344 12.71875 10.929688 C 12.730469 10.820312 12.777344 10.75 12.84375 10.691406 C 12.949219 10.589844 13.082031 10.535156 13.21875 10.492188 C 13.519531 10.40625 13.828125 10.386719 14.140625 10.375 C 14.527344 10.355469 14.917969 10.34375 15.308594 10.316406 C 15.496094 10.304688 15.679688 10.269531 15.878906 10.242188 Z M 15.878906 10.242188 " fill-opacity="1" fill-rule="nonzero"/><g clip-path="url(#b5fc4b7d6a)"><path fill="#ffffff" d="M 11.445312 10.398438 C 11.152344 10.398438 10.917969 10.164062 10.917969 9.871094 C 10.917969 9.574219 11.160156 9.332031 11.457031 9.335938 C 11.75 9.339844 11.992188 9.585938 11.984375 9.882812 C 11.976562 10.171875 11.738281 10.402344 11.445312 10.398438 Z M 11.445312 10.398438 " fill-opacity="1" fill-rule="nonzero"/></g><path fill="#ffffff" d="M 11.289062 10.871094 C 11.398438 10.871094 11.5 10.871094 11.617188 10.871094 C 11.617188 10.917969 11.617188 10.960938 11.617188 11 C 11.609375 11.707031 11.597656 12.410156 11.589844 13.113281 C 11.585938 13.277344 11.582031 13.441406 11.582031 13.605469 C 11.585938 13.671875 11.566406 13.714844 11.492188 13.726562 C 11.445312 13.738281 11.398438 13.757812 11.332031 13.777344 C 11.324219 13.710938 11.3125 13.652344 11.3125 13.589844 C 11.300781 12.71875 11.292969 11.847656 11.285156 10.972656 C 11.28125 10.941406 11.285156 10.910156 11.289062 10.871094 Z M 11.289062 10.871094 " fill-opacity="1" fill-rule="nonzero"/><path fill="#ffffff" d="M 14.992188 10.863281 C 14.945312 11.054688 14.839844 11.175781 14.679688 11.25 C 14.503906 11.332031 14.3125 11.371094 14.121094 11.375 C 13.84375 11.386719 13.566406 11.390625 13.289062 11.398438 C 13.023438 11.402344 12.761719 11.421875 12.503906 11.558594 C 12.519531 11.398438 12.601562 11.300781 12.714844 11.222656 C 12.859375 11.121094 13.023438 11.070312 13.195312 11.050781 C 13.394531 11.027344 13.589844 11.015625 13.785156 11 C 14.105469 10.972656 14.421875 10.953125 14.738281 10.921875 C 14.816406 10.917969 14.894531 10.886719 14.992188 10.863281 Z M 14.992188 10.863281 " fill-opacity="1" fill-rule="nonzero"/><path fill="#ffffff" d="M 10.402344 11.5625 C 10.152344 11.429688 9.90625 11.402344 9.660156 11.398438 C 9.359375 11.390625 9.0625 11.386719 8.765625 11.375 C 8.578125 11.371094 8.398438 11.332031 8.226562 11.253906 C 8.066406 11.179688 7.957031 11.058594 7.910156 10.886719 C 7.921875 10.878906 7.929688 10.871094 7.933594 10.871094 C 8.285156 10.972656 8.648438 10.972656 9.007812 10.996094 C 9.242188 11.011719 9.476562 11.023438 9.710938 11.050781 C 9.875 11.070312 10.03125 11.117188 10.171875 11.210938 C 10.289062 11.289062 10.375 11.390625 10.402344 11.5625 Z M 10.402344 11.5625 " fill-opacity="1" fill-rule="nonzero"/><path fill="#ffffff" d="M 12.390625 12.121094 C 12.417969 11.929688 12.515625 11.824219 12.65625 11.746094 C 12.804688 11.664062 12.96875 11.636719 13.136719 11.625 C 13.371094 11.605469 13.605469 11.601562 13.839844 11.578125 C 13.992188 11.5625 14.144531 11.53125 14.308594 11.503906 C 14.289062 11.644531 14.207031 11.757812 14.074219 11.835938 C 13.9375 11.914062 13.785156 11.949219 13.628906 11.953125 C 13.421875 11.964844 13.210938 11.96875 13.003906 11.972656 C 12.796875 11.976562 12.59375 11.996094 12.390625 12.121094 Z M 12.390625 12.121094 " fill-opacity="1" fill-rule="nonzero"/><path fill="#ffffff" d="M 8.59375 11.488281 C 8.972656 11.617188 9.359375 11.585938 9.742188 11.621094 C 9.917969 11.640625 10.09375 11.664062 10.25 11.75 C 10.386719 11.824219 10.484375 11.929688 10.507812 12.113281 C 10.183594 11.925781 9.839844 11.988281 9.507812 11.960938 C 9.355469 11.949219 9.203125 11.949219 9.058594 11.921875 C 8.839844 11.882812 8.667969 11.773438 8.601562 11.542969 C 8.59375 11.527344 8.597656 11.511719 8.59375 11.488281 Z M 8.59375 11.488281 " fill-opacity="1" fill-rule="nonzero"/><g clip-path="url(#ecf87506f7)"><path fill="#ffffff" d="M 11.132812 18.101562 C 10.871094 17.96875 10.773438 17.589844 10.957031 17.332031 C 11.03125 17.21875 11.140625 17.128906 11.25 17.042969 C 11.355469 16.957031 11.480469 16.890625 11.59375 16.8125 C 11.671875 16.757812 11.753906 16.699219 11.820312 16.632812 C 12.023438 16.429688 12.003906 16.179688 11.769531 16.007812 C 11.726562 15.976562 11.679688 15.949219 11.617188 15.910156 C 11.734375 15.863281 11.839844 15.820312 11.941406 15.777344 C 12.277344 15.980469 12.355469 16.480469 12.003906 16.796875 C 11.925781 16.863281 11.832031 16.917969 11.742188 16.96875 C 11.621094 17.035156 11.496094 17.09375 11.375 17.160156 C 11.308594 17.195312 11.246094 17.238281 11.1875 17.285156 C 10.933594 17.488281 10.902344 17.796875 11.101562 18.050781 C 11.113281 18.066406 11.121094 18.085938 11.128906 18.105469 Z M 11.132812 18.101562 " fill-opacity="1" fill-rule="nonzero"/></g><path fill="#ffffff" d="M 10.710938 10.289062 C 10.878906 10.398438 11.050781 10.496094 11.253906 10.527344 C 11.582031 10.574219 11.882812 10.507812 12.152344 10.308594 C 12.171875 10.292969 12.199219 10.285156 12.222656 10.277344 L 12.222656 10.273438 C 11.925781 10.863281 11.15625 10.945312 10.773438 10.425781 C 10.742188 10.386719 10.722656 10.339844 10.703125 10.296875 C 10.703125 10.292969 10.707031 10.289062 10.710938 10.289062 Z M 10.710938 10.289062 " fill-opacity="1" fill-rule="nonzero"/><path fill="#ffffff" d="M 11.550781 15.394531 C 11.484375 15.421875 11.429688 15.445312 11.355469 15.472656 C 11.347656 15.105469 11.339844 14.757812 11.332031 14.398438 C 11.410156 14.378906 11.476562 14.359375 11.550781 14.339844 C 11.550781 14.699219 11.550781 15.046875 11.550781 15.394531 Z M 11.550781 15.394531 " fill-opacity="1" fill-rule="nonzero"/><path fill="#ffffff" d="M 11.378906 16.835938 C 11.378906 16.546875 11.378906 16.265625 11.378906 15.96875 C 11.417969 15.953125 11.46875 15.933594 11.527344 15.910156 C 11.53125 15.949219 11.535156 15.980469 11.535156 16.011719 C 11.53125 16.226562 11.523438 16.4375 11.527344 16.652344 C 11.527344 16.753906 11.488281 16.808594 11.378906 16.835938 Z M 11.378906 16.835938 " fill-opacity="1" fill-rule="nonzero"/><path fill="#ffffff" d="M 11.390625 17.476562 C 11.390625 17.433594 11.394531 17.386719 11.390625 17.339844 C 11.378906 17.257812 11.414062 17.214844 11.511719 17.195312 " fill-opacity="1" fill-rule="nonzero"/><g clip-path="url(#841113cb16)"><path fill="#ffffff" d="M 11.761719 18.097656 C 11.835938 18.015625 11.894531 17.925781 11.914062 17.816406 C 11.957031 17.597656 11.894531 17.421875 11.714844 17.285156 C 11.671875 17.25 11.628906 17.21875 11.578125 17.179688 C 11.632812 17.152344 11.683594 17.128906 11.726562 17.105469 C 12.027344 17.304688 12.121094 17.632812 11.960938 17.914062 C 11.917969 17.992188 11.871094 18.085938 11.757812 18.09375 Z M 11.761719 18.097656 " fill-opacity="1" fill-rule="nonzero"/></g><path fill="#ffffff" d="M 12.222656 10.277344 L 12.21875 10.265625 L 12.222656 10.273438 Z M 12.222656 10.277344 " fill-opacity="1" fill-rule="nonzero"/><path fill="#ffffff" d="M 10.703125 10.296875 C 10.699219 10.289062 10.695312 10.28125 10.691406 10.273438 C 10.695312 10.277344 10.703125 10.28125 10.710938 10.289062 C 10.707031 10.289062 10.703125 10.292969 10.703125 10.296875 Z M 10.703125 10.296875 " fill-opacity="1" fill-rule="nonzero"/><path fill="#ffffff" d="M 10.929688 12.257812 C 10.933594 12.257812 10.9375 12.261719 10.941406 12.261719 C 10.9375 12.257812 10.933594 12.257812 10.933594 12.253906 Z M 10.929688 12.257812 " fill-opacity="1" fill-rule="nonzero"/><path fill="#ffffff" d="M 11.953125 12.246094 C 11.957031 12.25 11.957031 12.25 11.960938 12.253906 C 11.957031 12.253906 11.957031 12.25 11.957031 12.25 Z M 11.953125 12.246094 " fill-opacity="1" fill-rule="nonzero"/><g clip-path="url(#9e5a669e51)"><path fill="#ffffff" d="M 11.128906 18.105469 C 11.136719 18.105469 11.140625 18.109375 11.144531 18.109375 C 11.144531 18.109375 11.140625 18.113281 11.136719 18.109375 C 11.136719 18.109375 11.132812 18.105469 11.132812 18.101562 Z M 11.128906 18.105469 " fill-opacity="1" fill-rule="nonzero"/><path fill="#ffffff" d="M 11.757812 18.09375 C 11.757812 18.101562 11.757812 18.105469 11.753906 18.113281 C 11.753906 18.109375 11.753906 18.109375 11.753906 18.105469 C 11.757812 18.101562 11.757812 18.101562 11.761719 18.097656 Z M 11.757812 18.09375 " fill-opacity="1" fill-rule="nonzero"/></g><g fill="#004aad" fill-opacity="1"><g transform="translate(8.288718, 27.878249)"><g><path d="M 1.328125 0 L 1.125 0 L 0.34375 -1.203125 C 0.351562 -1.066406 0.359375 -0.9375 0.359375 -0.8125 L 0.359375 0 L 0.203125 0 L 0.203125 -1.4375 L 0.390625 -1.4375 L 1.171875 -0.234375 C 1.171875 -0.253906 1.164062 -0.3125 1.15625 -0.40625 C 1.15625 -0.5 1.160156 -0.566406 1.171875 -0.609375 L 1.171875 -1.4375 L 1.328125 -1.4375 Z M 1.328125 0 "/></g></g><g transform="translate(9.811826, 27.878249)"><g><path d="M 0.328125 -1.078125 L 0.328125 -0.375 C 0.328125 -0.289062 0.347656 -0.222656 0.390625 -0.171875 C 0.429688 -0.128906 0.492188 -0.109375 0.578125 -0.109375 C 0.691406 -0.109375 0.773438 -0.140625 0.828125 -0.203125 C 0.878906 -0.265625 0.90625 -0.367188 0.90625 -0.515625 L 0.90625 -1.078125 L 1.0625 -1.078125 L 1.0625 0 L 0.921875 0 L 0.90625 -0.140625 L 0.890625 -0.140625 C 0.859375 -0.0859375 0.8125 -0.046875 0.75 -0.015625 C 0.695312 0.00390625 0.628906 0.015625 0.546875 0.015625 C 0.421875 0.015625 0.320312 -0.015625 0.25 -0.078125 C 0.1875 -0.140625 0.15625 -0.238281 0.15625 -0.375 L 0.15625 -1.078125 Z M 0.328125 -1.078125 "/></g></g><g transform="translate(11.051818, 27.878249)"><g><path d="M 0.625 0.015625 C 0.46875 0.015625 0.34375 -0.03125 0.25 -0.125 C 0.15625 -0.21875 0.109375 -0.351562 0.109375 -0.53125 C 0.109375 -0.707031 0.148438 -0.84375 0.234375 -0.9375 C 0.328125 -1.039062 0.445312 -1.09375 0.59375 -1.09375 C 0.726562 -1.09375 0.832031 -1.046875 0.90625 -0.953125 C 0.988281 -0.867188 1.03125 -0.753906 1.03125 -0.609375 L 1.03125 -0.515625 L 0.28125 -0.515625 C 0.28125 -0.378906 0.3125 -0.28125 0.375 -0.21875 C 0.4375 -0.15625 0.523438 -0.125 0.640625 -0.125 C 0.753906 -0.125 0.867188 -0.148438 0.984375 -0.203125 L 0.984375 -0.046875 C 0.921875 -0.0234375 0.863281 -0.0078125 0.8125 0 C 0.757812 0.0078125 0.695312 0.015625 0.625 0.015625 Z M 0.578125 -0.96875 C 0.492188 -0.96875 0.425781 -0.9375 0.375 -0.875 C 0.320312 -0.820312 0.289062 -0.742188 0.28125 -0.640625 L 0.84375 -0.640625 C 0.84375 -0.742188 0.820312 -0.820312 0.78125 -0.875 C 0.738281 -0.9375 0.671875 -0.96875 0.578125 -0.96875 Z M 0.578125 -0.96875 "/></g></g><g transform="translate(12.185271, 27.878249)"><g><path d="M 0.875 -0.296875 C 0.875 -0.191406 0.832031 -0.113281 0.75 -0.0625 C 0.675781 -0.0078125 0.570312 0.015625 0.4375 0.015625 C 0.300781 0.015625 0.191406 -0.00390625 0.109375 -0.046875 L 0.109375 -0.203125 C 0.160156 -0.171875 0.210938 -0.144531 0.265625 -0.125 C 0.328125 -0.113281 0.390625 -0.109375 0.453125 -0.109375 C 0.535156 -0.109375 0.597656 -0.125 0.640625 -0.15625 C 0.691406 -0.1875 0.71875 -0.226562 0.71875 -0.28125 C 0.71875 -0.320312 0.695312 -0.359375 0.65625 -0.390625 C 0.625 -0.421875 0.550781 -0.457031 0.4375 -0.5 C 0.34375 -0.53125 0.273438 -0.5625 0.234375 -0.59375 C 0.191406 -0.625 0.160156 -0.65625 0.140625 -0.6875 C 0.117188 -0.71875 0.109375 -0.757812 0.109375 -0.8125 C 0.109375 -0.90625 0.140625 -0.972656 0.203125 -1.015625 C 0.273438 -1.066406 0.375 -1.09375 0.5 -1.09375 C 0.625 -1.09375 0.738281 -1.070312 0.84375 -1.03125 L 0.78125 -0.890625 C 0.675781 -0.941406 0.582031 -0.96875 0.5 -0.96875 C 0.414062 -0.96875 0.351562 -0.953125 0.3125 -0.921875 C 0.28125 -0.898438 0.265625 -0.867188 0.265625 -0.828125 C 0.265625 -0.796875 0.269531 -0.769531 0.28125 -0.75 C 0.289062 -0.726562 0.3125 -0.707031 0.34375 -0.6875 C 0.382812 -0.675781 0.453125 -0.648438 0.546875 -0.609375 C 0.671875 -0.566406 0.753906 -0.519531 0.796875 -0.46875 C 0.847656 -0.425781 0.875 -0.367188 0.875 -0.296875 Z M 0.875 -0.296875 "/></g></g><g transform="translate(13.149051, 27.878249)"><g><path d="M 0.515625 -0.109375 C 0.546875 -0.109375 0.570312 -0.109375 0.59375 -0.109375 C 0.625 -0.117188 0.648438 -0.128906 0.671875 -0.140625 L 0.671875 -0.015625 C 0.648438 -0.00390625 0.625 0 0.59375 0 C 0.5625 0.0078125 0.53125 0.015625 0.5 0.015625 C 0.289062 0.015625 0.1875 -0.09375 0.1875 -0.3125 L 0.1875 -0.953125 L 0.03125 -0.953125 L 0.03125 -1.03125 L 0.1875 -1.09375 L 0.25 -1.328125 L 0.34375 -1.328125 L 0.34375 -1.078125 L 0.65625 -1.078125 L 0.65625 -0.953125 L 0.34375 -0.953125 L 0.34375 -0.3125 C 0.34375 -0.25 0.359375 -0.195312 0.390625 -0.15625 C 0.421875 -0.125 0.460938 -0.109375 0.515625 -0.109375 Z M 0.515625 -0.109375 "/></g></g><g transform="translate(13.862268, 27.878249)"><g><path d="M 0.671875 -1.09375 C 0.710938 -1.09375 0.753906 -1.09375 0.796875 -1.09375 L 0.765625 -0.9375 C 0.722656 -0.945312 0.6875 -0.953125 0.65625 -0.953125 C 0.5625 -0.953125 0.484375 -0.914062 0.421875 -0.84375 C 0.367188 -0.769531 0.34375 -0.679688 0.34375 -0.578125 L 0.34375 0 L 0.171875 0 L 0.171875 -1.078125 L 0.3125 -1.078125 L 0.328125 -0.875 C 0.367188 -0.945312 0.414062 -1 0.46875 -1.03125 C 0.53125 -1.070312 0.597656 -1.09375 0.671875 -1.09375 Z M 0.671875 -1.09375 "/></g></g><g transform="translate(14.686956, 27.878249)"><g><path d="M 0.84375 0 L 0.796875 -0.15625 C 0.742188 -0.0820312 0.691406 -0.0351562 0.640625 -0.015625 C 0.585938 0.00390625 0.519531 0.015625 0.4375 0.015625 C 0.332031 0.015625 0.25 -0.0078125 0.1875 -0.0625 C 0.125 -0.113281 0.09375 -0.191406 0.09375 -0.296875 C 0.09375 -0.515625 0.265625 -0.628906 0.609375 -0.640625 L 0.796875 -0.640625 L 0.796875 -0.71875 C 0.796875 -0.800781 0.773438 -0.863281 0.734375 -0.90625 C 0.703125 -0.945312 0.644531 -0.96875 0.5625 -0.96875 C 0.476562 -0.96875 0.378906 -0.9375 0.265625 -0.875 L 0.21875 -1 C 0.269531 -1.03125 0.328125 -1.050781 0.390625 -1.0625 C 0.453125 -1.082031 0.515625 -1.09375 0.578125 -1.09375 C 0.703125 -1.09375 0.796875 -1.0625 0.859375 -1 C 0.921875 -0.945312 0.953125 -0.859375 0.953125 -0.734375 L 0.953125 0 Z M 0.46875 -0.109375 C 0.570312 -0.109375 0.648438 -0.132812 0.703125 -0.1875 C 0.765625 -0.25 0.796875 -0.332031 0.796875 -0.4375 L 0.796875 -0.53125 L 0.625 -0.53125 C 0.5 -0.519531 0.40625 -0.492188 0.34375 -0.453125 C 0.289062 -0.421875 0.265625 -0.367188 0.265625 -0.296875 C 0.265625 -0.234375 0.28125 -0.1875 0.3125 -0.15625 C 0.351562 -0.125 0.40625 -0.109375 0.46875 -0.109375 Z M 0.46875 -0.109375 "/></g></g><g transform="translate(15.810545, 27.878249)"><g/></g><g transform="translate(16.335346, 27.878249)"><g><path d="M 1.109375 -1.015625 C 1.109375 -0.867188 1.054688 -0.753906 0.953125 -0.671875 C 0.859375 -0.597656 0.71875 -0.5625 0.53125 -0.5625 L 0.359375 -0.5625 L 0.359375 0 L 0.203125 0 L 0.203125 -1.4375 L 0.578125 -1.4375 C 0.929688 -1.4375 1.109375 -1.296875 1.109375 -1.015625 Z M 0.359375 -0.703125 L 0.515625 -0.703125 C 0.660156 -0.703125 0.765625 -0.726562 0.828125 -0.78125 C 0.898438 -0.832031 0.9375 -0.910156 0.9375 -1.015625 C 0.9375 -1.109375 0.90625 -1.175781 0.84375 -1.21875 C 0.78125 -1.269531 0.679688 -1.296875 0.546875 -1.296875 L 0.359375 -1.296875 Z M 0.359375 -0.703125 "/></g></g><g transform="translate(17.551663, 27.878249)"><g><path d="M 0.671875 -1.09375 C 0.710938 -1.09375 0.753906 -1.09375 0.796875 -1.09375 L 0.765625 -0.9375 C 0.722656 -0.945312 0.6875 -0.953125 0.65625 -0.953125 C 0.5625 -0.953125 0.484375 -0.914062 0.421875 -0.84375 C 0.367188 -0.769531 0.34375 -0.679688 0.34375 -0.578125 L 0.34375 0 L 0.171875 0 L 0.171875 -1.078125 L 0.3125 -1.078125 L 0.328125 -0.875 C 0.367188 -0.945312 0.414062 -1 0.46875 -1.03125 C 0.53125 -1.070312 0.597656 -1.09375 0.671875 -1.09375 Z M 0.671875 -1.09375 "/></g></g><g transform="translate(18.376351, 27.878249)"><g><path d="M 0.34375 0 L 0.171875 0 L 0.171875 -1.078125 L 0.34375 -1.078125 Z M 0.15625 -1.375 C 0.15625 -1.40625 0.164062 -1.429688 0.1875 -1.453125 C 0.207031 -1.472656 0.226562 -1.484375 0.25 -1.484375 C 0.28125 -1.484375 0.304688 -1.472656 0.328125 -1.453125 C 0.347656 -1.429688 0.359375 -1.40625 0.359375 -1.375 C 0.359375 -1.332031 0.347656 -1.300781 0.328125 -1.28125 C 0.304688 -1.269531 0.28125 -1.265625 0.25 -1.265625 C 0.226562 -1.265625 0.207031 -1.269531 0.1875 -1.28125 C 0.164062 -1.300781 0.15625 -1.332031 0.15625 -1.375 Z M 0.15625 -1.375 "/></g></g><g transform="translate(18.887342, 27.878249)"><g><path d="M 1.109375 -0.546875 C 1.109375 -0.367188 1.0625 -0.226562 0.96875 -0.125 C 0.882812 -0.03125 0.765625 0.015625 0.609375 0.015625 C 0.503906 0.015625 0.414062 -0.00390625 0.34375 -0.046875 C 0.269531 -0.0859375 0.210938 -0.148438 0.171875 -0.234375 C 0.128906 -0.328125 0.109375 -0.429688 0.109375 -0.546875 C 0.109375 -0.710938 0.148438 -0.84375 0.234375 -0.9375 C 0.328125 -1.039062 0.453125 -1.09375 0.609375 -1.09375 C 0.765625 -1.09375 0.882812 -1.039062 0.96875 -0.9375 C 1.0625 -0.84375 1.109375 -0.710938 1.109375 -0.546875 Z M 0.28125 -0.546875 C 0.28125 -0.398438 0.304688 -0.289062 0.359375 -0.21875 C 0.421875 -0.144531 0.503906 -0.109375 0.609375 -0.109375 C 0.710938 -0.109375 0.789062 -0.144531 0.84375 -0.21875 C 0.90625 -0.289062 0.9375 -0.398438 0.9375 -0.546875 C 0.9375 -0.679688 0.90625 -0.78125 0.84375 -0.84375 C 0.789062 -0.914062 0.710938 -0.953125 0.609375 -0.953125 C 0.503906 -0.953125 0.421875 -0.914062 0.359375 -0.84375 C 0.304688 -0.78125 0.28125 -0.679688 0.28125 -0.546875 Z M 0.28125 -0.546875 "/></g></g><g transform="translate(20.107604, 27.878249)"><g><path d="M 0.671875 -1.09375 C 0.710938 -1.09375 0.753906 -1.09375 0.796875 -1.09375 L 0.765625 -0.9375 C 0.722656 -0.945312 0.6875 -0.953125 0.65625 -0.953125 C 0.5625 -0.953125 0.484375 -0.914062 0.421875 -0.84375 C 0.367188 -0.769531 0.34375 -0.679688 0.34375 -0.578125 L 0.34375 0 L 0.171875 0 L 0.171875 -1.078125 L 0.3125 -1.078125 L 0.328125 -0.875 C 0.367188 -0.945312 0.414062 -1 0.46875 -1.03125 C 0.53125 -1.070312 0.597656 -1.09375 0.671875 -1.09375 Z M 0.671875 -1.09375 "/></g></g><g transform="translate(20.932292, 27.878249)"><g><path d="M 0.34375 0 L 0.171875 0 L 0.171875 -1.078125 L 0.34375 -1.078125 Z M 0.15625 -1.375 C 0.15625 -1.40625 0.164062 -1.429688 0.1875 -1.453125 C 0.207031 -1.472656 0.226562 -1.484375 0.25 -1.484375 C 0.28125 -1.484375 0.304688 -1.472656 0.328125 -1.453125 C 0.347656 -1.429688 0.359375 -1.40625 0.359375 -1.375 C 0.359375 -1.332031 0.347656 -1.300781 0.328125 -1.28125 C 0.304688 -1.269531 0.28125 -1.265625 0.25 -1.265625 C 0.226562 -1.265625 0.207031 -1.269531 0.1875 -1.28125 C 0.164062 -1.300781 0.15625 -1.332031 0.15625 -1.375 Z M 0.15625 -1.375 "/></g></g><g transform="translate(21.443283, 27.878249)"><g><path d="M 0.90625 -0.140625 C 0.820312 -0.0351562 0.707031 0.015625 0.5625 0.015625 C 0.414062 0.015625 0.300781 -0.03125 0.21875 -0.125 C 0.144531 -0.21875 0.109375 -0.351562 0.109375 -0.53125 C 0.109375 -0.707031 0.144531 -0.84375 0.21875 -0.9375 C 0.300781 -1.039062 0.414062 -1.09375 0.5625 -1.09375 C 0.707031 -1.09375 0.816406 -1.039062 0.890625 -0.9375 L 0.90625 -0.9375 L 0.90625 -1.53125 L 1.0625 -1.53125 L 1.0625 0 L 0.921875 0 Z M 0.578125 -0.109375 C 0.691406 -0.109375 0.773438 -0.140625 0.828125 -0.203125 C 0.878906 -0.265625 0.90625 -0.363281 0.90625 -0.5 L 0.90625 -0.53125 C 0.90625 -0.6875 0.878906 -0.796875 0.828125 -0.859375 C 0.773438 -0.929688 0.691406 -0.96875 0.578125 -0.96875 C 0.484375 -0.96875 0.410156 -0.925781 0.359375 -0.84375 C 0.304688 -0.769531 0.28125 -0.664062 0.28125 -0.53125 C 0.28125 -0.394531 0.304688 -0.289062 0.359375 -0.21875 C 0.410156 -0.144531 0.484375 -0.109375 0.578125 -0.109375 Z M 0.578125 -0.109375 "/></g></g><g transform="translate(22.681302, 27.878249)"><g><path d="M 0.84375 0 L 0.796875 -0.15625 C 0.742188 -0.0820312 0.691406 -0.0351562 0.640625 -0.015625 C 0.585938 0.00390625 0.519531 0.015625 0.4375 0.015625 C 0.332031 0.015625 0.25 -0.0078125 0.1875 -0.0625 C 0.125 -0.113281 0.09375 -0.191406 0.09375 -0.296875 C 0.09375 -0.515625 0.265625 -0.628906 0.609375 -0.640625 L 0.796875 -0.640625 L 0.796875 -0.71875 C 0.796875 -0.800781 0.773438 -0.863281 0.734375 -0.90625 C 0.703125 -0.945312 0.644531 -0.96875 0.5625 -0.96875 C 0.476562 -0.96875 0.378906 -0.9375 0.265625 -0.875 L 0.21875 -1 C 0.269531 -1.03125 0.328125 -1.050781 0.390625 -1.0625 C 0.453125 -1.082031 0.515625 -1.09375 0.578125 -1.09375 C 0.703125 -1.09375 0.796875 -1.0625 0.859375 -1 C 0.921875 -0.945312 0.953125 -0.859375 0.953125 -0.734375 L 0.953125 0 Z M 0.46875 -0.109375 C 0.570312 -0.109375 0.648438 -0.132812 0.703125 -0.1875 C 0.765625 -0.25 0.796875 -0.332031 0.796875 -0.4375 L 0.796875 -0.53125 L 0.625 -0.53125 C 0.5 -0.519531 0.40625 -0.492188 0.34375 -0.453125 C 0.289062 -0.421875 0.265625 -0.367188 0.265625 -0.296875 C 0.265625 -0.234375 0.28125 -0.1875 0.3125 -0.15625 C 0.351562 -0.125 0.40625 -0.109375 0.46875 -0.109375 Z M 0.46875 -0.109375 "/></g></g><g transform="translate(23.804891, 27.878249)"><g><path d="M 0.90625 -0.140625 C 0.820312 -0.0351562 0.707031 0.015625 0.5625 0.015625 C 0.414062 0.015625 0.300781 -0.03125 0.21875 -0.125 C 0.144531 -0.21875 0.109375 -0.351562 0.109375 -0.53125 C 0.109375 -0.707031 0.144531 -0.84375 0.21875 -0.9375 C 0.300781 -1.039062 0.414062 -1.09375 0.5625 -1.09375 C 0.707031 -1.09375 0.816406 -1.039062 0.890625 -0.9375 L 0.90625 -0.9375 L 0.90625 -1.53125 L 1.0625 -1.53125 L 1.0625 0 L 0.921875 0 Z M 0.578125 -0.109375 C 0.691406 -0.109375 0.773438 -0.140625 0.828125 -0.203125 C 0.878906 -0.265625 0.90625 -0.363281 0.90625 -0.5 L 0.90625 -0.53125 C 0.90625 -0.6875 0.878906 -0.796875 0.828125 -0.859375 C 0.773438 -0.929688 0.691406 -0.96875 0.578125 -0.96875 C 0.484375 -0.96875 0.410156 -0.925781 0.359375 -0.84375 C 0.304688 -0.769531 0.28125 -0.664062 0.28125 -0.53125 C 0.28125 -0.394531 0.304688 -0.289062 0.359375 -0.21875 C 0.410156 -0.144531 0.484375 -0.109375 0.578125 -0.109375 Z M 0.578125 -0.109375 "/></g></g><g transform="translate(25.042909, 27.878249)"><g/></g><g transform="translate(25.567711, 27.878249)"><g><path d="M 0.625 0.015625 C 0.46875 0.015625 0.34375 -0.03125 0.25 -0.125 C 0.15625 -0.21875 0.109375 -0.351562 0.109375 -0.53125 C 0.109375 -0.707031 0.148438 -0.84375 0.234375 -0.9375 C 0.328125 -1.039062 0.445312 -1.09375 0.59375 -1.09375 C 0.726562 -1.09375 0.832031 -1.046875 0.90625 -0.953125 C 0.988281 -0.867188 1.03125 -0.753906 1.03125 -0.609375 L 1.03125 -0.515625 L 0.28125 -0.515625 C 0.28125 -0.378906 0.3125 -0.28125 0.375 -0.21875 C 0.4375 -0.15625 0.523438 -0.125 0.640625 -0.125 C 0.753906 -0.125 0.867188 -0.148438 0.984375 -0.203125 L 0.984375 -0.046875 C 0.921875 -0.0234375 0.863281 -0.0078125 0.8125 0 C 0.757812 0.0078125 0.695312 0.015625 0.625 0.015625 Z M 0.578125 -0.96875 C 0.492188 -0.96875 0.425781 -0.9375 0.375 -0.875 C 0.320312 -0.820312 0.289062 -0.742188 0.28125 -0.640625 L 0.84375 -0.640625 C 0.84375 -0.742188 0.820312 -0.820312 0.78125 -0.875 C 0.738281 -0.9375 0.671875 -0.96875 0.578125 -0.96875 Z M 0.578125 -0.96875 "/></g></g><g transform="translate(26.701164, 27.878249)"><g><path d="M 0.875 -0.296875 C 0.875 -0.191406 0.832031 -0.113281 0.75 -0.0625 C 0.675781 -0.0078125 0.570312 0.015625 0.4375 0.015625 C 0.300781 0.015625 0.191406 -0.00390625 0.109375 -0.046875 L 0.109375 -0.203125 C 0.160156 -0.171875 0.210938 -0.144531 0.265625 -0.125 C 0.328125 -0.113281 0.390625 -0.109375 0.453125 -0.109375 C 0.535156 -0.109375 0.597656 -0.125 0.640625 -0.15625 C 0.691406 -0.1875 0.71875 -0.226562 0.71875 -0.28125 C 0.71875 -0.320312 0.695312 -0.359375 0.65625 -0.390625 C 0.625 -0.421875 0.550781 -0.457031 0.4375 -0.5 C 0.34375 -0.53125 0.273438 -0.5625 0.234375 -0.59375 C 0.191406 -0.625 0.160156 -0.65625 0.140625 -0.6875 C 0.117188 -0.71875 0.109375 -0.757812 0.109375 -0.8125 C 0.109375 -0.90625 0.140625 -0.972656 0.203125 -1.015625 C 0.273438 -1.066406 0.375 -1.09375 0.5 -1.09375 C 0.625 -1.09375 0.738281 -1.070312 0.84375 -1.03125 L 0.78125 -0.890625 C 0.675781 -0.941406 0.582031 -0.96875 0.5 -0.96875 C 0.414062 -0.96875 0.351562 -0.953125 0.3125 -0.921875 C 0.28125 -0.898438 0.265625 -0.867188 0.265625 -0.828125 C 0.265625 -0.796875 0.269531 -0.769531 0.28125 -0.75 C 0.289062 -0.726562 0.3125 -0.707031 0.34375 -0.6875 C 0.382812 -0.675781 0.453125 -0.648438 0.546875 -0.609375 C 0.671875 -0.566406 0.753906 -0.519531 0.796875 -0.46875 C 0.847656 -0.425781 0.875 -0.367188 0.875 -0.296875 Z M 0.875 -0.296875 "/></g></g><g transform="translate(27.664944, 27.878249)"><g/></g><g transform="translate(28.189746, 27.878249)"><g><path d="M 0.875 -0.296875 C 0.875 -0.191406 0.832031 -0.113281 0.75 -0.0625 C 0.675781 -0.0078125 0.570312 0.015625 0.4375 0.015625 C 0.300781 0.015625 0.191406 -0.00390625 0.109375 -0.046875 L 0.109375 -0.203125 C 0.160156 -0.171875 0.210938 -0.144531 0.265625 -0.125 C 0.328125 -0.113281 0.390625 -0.109375 0.453125 -0.109375 C 0.535156 -0.109375 0.597656 -0.125 0.640625 -0.15625 C 0.691406 -0.1875 0.71875 -0.226562 0.71875 -0.28125 C 0.71875 -0.320312 0.695312 -0.359375 0.65625 -0.390625 C 0.625 -0.421875 0.550781 -0.457031 0.4375 -0.5 C 0.34375 -0.53125 0.273438 -0.5625 0.234375 -0.59375 C 0.191406 -0.625 0.160156 -0.65625 0.140625 -0.6875 C 0.117188 -0.71875 0.109375 -0.757812 0.109375 -0.8125 C 0.109375 -0.90625 0.140625 -0.972656 0.203125 -1.015625 C 0.273438 -1.066406 0.375 -1.09375 0.5 -1.09375 C 0.625 -1.09375 0.738281 -1.070312 0.84375 -1.03125 L 0.78125 -0.890625 C 0.675781 -0.941406 0.582031 -0.96875 0.5 -0.96875 C 0.414062 -0.96875 0.351562 -0.953125 0.3125 -0.921875 C 0.28125 -0.898438 0.265625 -0.867188 0.265625 -0.828125 C 0.265625 -0.796875 0.269531 -0.769531 0.28125 -0.75 C 0.289062 -0.726562 0.3125 -0.707031 0.34375 -0.6875 C 0.382812 -0.675781 0.453125 -0.648438 0.546875 -0.609375 C 0.671875 -0.566406 0.753906 -0.519531 0.796875 -0.46875 C 0.847656 -0.425781 0.875 -0.367188 0.875 -0.296875 Z M 0.875 -0.296875 "/></g></g><g transform="translate(29.153526, 27.878249)"><g><path d="M 0.328125 -1.078125 L 0.328125 -0.375 C 0.328125 -0.289062 0.347656 -0.222656 0.390625 -0.171875 C 0.429688 -0.128906 0.492188 -0.109375 0.578125 -0.109375 C 0.691406 -0.109375 0.773438 -0.140625 0.828125 -0.203125 C 0.878906 -0.265625 0.90625 -0.367188 0.90625 -0.515625 L 0.90625 -1.078125 L 1.0625 -1.078125 L 1.0625 0 L 0.921875 0 L 0.90625 -0.140625 L 0.890625 -0.140625 C 0.859375 -0.0859375 0.8125 -0.046875 0.75 -0.015625 C 0.695312 0.00390625 0.628906 0.015625 0.546875 0.015625 C 0.421875 0.015625 0.320312 -0.015625 0.25 -0.078125 C 0.1875 -0.140625 0.15625 -0.238281 0.15625 -0.375 L 0.15625 -1.078125 Z M 0.328125 -1.078125 "/></g></g><g transform="translate(30.393518, 27.878249)"><g/></g><g transform="translate(30.91832, 27.878249)"><g><path d="M 0.203125 -1.4375 L 0.609375 -1.4375 C 0.796875 -1.4375 0.929688 -1.40625 1.015625 -1.34375 C 1.097656 -1.289062 1.140625 -1.203125 1.140625 -1.078125 C 1.140625 -0.992188 1.113281 -0.921875 1.0625 -0.859375 C 1.019531 -0.804688 0.953125 -0.773438 0.859375 -0.765625 L 0.859375 -0.75 C 1.078125 -0.71875 1.1875 -0.601562 1.1875 -0.40625 C 1.1875 -0.28125 1.144531 -0.179688 1.0625 -0.109375 C 0.976562 -0.0351562 0.859375 0 0.703125 0 L 0.203125 0 Z M 0.359375 -0.828125 L 0.640625 -0.828125 C 0.753906 -0.828125 0.835938 -0.84375 0.890625 -0.875 C 0.941406 -0.914062 0.96875 -0.976562 0.96875 -1.0625 C 0.96875 -1.144531 0.9375 -1.203125 0.875 -1.234375 C 0.820312 -1.273438 0.734375 -1.296875 0.609375 -1.296875 L 0.359375 -1.296875 Z M 0.359375 -0.6875 L 0.359375 -0.140625 L 0.671875 -0.140625 C 0.785156 -0.140625 0.867188 -0.160156 0.921875 -0.203125 C 0.984375 -0.253906 1.015625 -0.328125 1.015625 -0.421875 C 1.015625 -0.515625 0.984375 -0.582031 0.921875 -0.625 C 0.859375 -0.664062 0.769531 -0.6875 0.65625 -0.6875 Z M 0.359375 -0.6875 "/></g></g><g transform="translate(32.227364, 27.878249)"><g><path d="M 0.34375 0 L 0.171875 0 L 0.171875 -1.078125 L 0.34375 -1.078125 Z M 0.15625 -1.375 C 0.15625 -1.40625 0.164062 -1.429688 0.1875 -1.453125 C 0.207031 -1.472656 0.226562 -1.484375 0.25 -1.484375 C 0.28125 -1.484375 0.304688 -1.472656 0.328125 -1.453125 C 0.347656 -1.429688 0.359375 -1.40625 0.359375 -1.375 C 0.359375 -1.332031 0.347656 -1.300781 0.328125 -1.28125 C 0.304688 -1.269531 0.28125 -1.265625 0.25 -1.265625 C 0.226562 -1.265625 0.207031 -1.269531 0.1875 -1.28125 C 0.164062 -1.300781 0.15625 -1.332031 0.15625 -1.375 Z M 0.15625 -1.375 "/></g></g><g transform="translate(32.738355, 27.878249)"><g><path d="M 0.625 0.015625 C 0.46875 0.015625 0.34375 -0.03125 0.25 -0.125 C 0.15625 -0.21875 0.109375 -0.351562 0.109375 -0.53125 C 0.109375 -0.707031 0.148438 -0.84375 0.234375 -0.9375 C 0.328125 -1.039062 0.445312 -1.09375 0.59375 -1.09375 C 0.726562 -1.09375 0.832031 -1.046875 0.90625 -0.953125 C 0.988281 -0.867188 1.03125 -0.753906 1.03125 -0.609375 L 1.03125 -0.515625 L 0.28125 -0.515625 C 0.28125 -0.378906 0.3125 -0.28125 0.375 -0.21875 C 0.4375 -0.15625 0.523438 -0.125 0.640625 -0.125 C 0.753906 -0.125 0.867188 -0.148438 0.984375 -0.203125 L 0.984375 -0.046875 C 0.921875 -0.0234375 0.863281 -0.0078125 0.8125 0 C 0.757812 0.0078125 0.695312 0.015625 0.625 0.015625 Z M 0.578125 -0.96875 C 0.492188 -0.96875 0.425781 -0.9375 0.375 -0.875 C 0.320312 -0.820312 0.289062 -0.742188 0.28125 -0.640625 L 0.84375 -0.640625 C 0.84375 -0.742188 0.820312 -0.820312 0.78125 -0.875 C 0.738281 -0.9375 0.671875 -0.96875 0.578125 -0.96875 Z M 0.578125 -0.96875 "/></g></g><g transform="translate(33.871808, 27.878249)"><g><path d="M 0.90625 0 L 0.90625 -0.703125 C 0.90625 -0.785156 0.882812 -0.847656 0.84375 -0.890625 C 0.8125 -0.929688 0.75 -0.953125 0.65625 -0.953125 C 0.550781 -0.953125 0.472656 -0.921875 0.421875 -0.859375 C 0.367188 -0.804688 0.34375 -0.707031 0.34375 -0.5625 L 0.34375 0 L 0.171875 0 L 0.171875 -1.078125 L 0.3125 -1.078125 L 0.328125 -0.9375 L 0.34375 -0.9375 C 0.375 -0.988281 0.421875 -1.023438 0.484375 -1.046875 C 0.546875 -1.078125 0.613281 -1.09375 0.6875 -1.09375 C 0.8125 -1.09375 0.90625 -1.0625 0.96875 -1 C 1.039062 -0.9375 1.078125 -0.835938 1.078125 -0.703125 L 1.078125 0 Z M 0.90625 0 "/></g></g><g transform="translate(35.1118, 27.878249)"><g><path d="M 0.625 0.015625 C 0.46875 0.015625 0.34375 -0.03125 0.25 -0.125 C 0.15625 -0.21875 0.109375 -0.351562 0.109375 -0.53125 C 0.109375 -0.707031 0.148438 -0.84375 0.234375 -0.9375 C 0.328125 -1.039062 0.445312 -1.09375 0.59375 -1.09375 C 0.726562 -1.09375 0.832031 -1.046875 0.90625 -0.953125 C 0.988281 -0.867188 1.03125 -0.753906 1.03125 -0.609375 L 1.03125 -0.515625 L 0.28125 -0.515625 C 0.28125 -0.378906 0.3125 -0.28125 0.375 -0.21875 C 0.4375 -0.15625 0.523438 -0.125 0.640625 -0.125 C 0.753906 -0.125 0.867188 -0.148438 0.984375 -0.203125 L 0.984375 -0.046875 C 0.921875 -0.0234375 0.863281 -0.0078125 0.8125 0 C 0.757812 0.0078125 0.695312 0.015625 0.625 0.015625 Z M 0.578125 -0.96875 C 0.492188 -0.96875 0.425781 -0.9375 0.375 -0.875 C 0.320312 -0.820312 0.289062 -0.742188 0.28125 -0.640625 L 0.84375 -0.640625 C 0.84375 -0.742188 0.820312 -0.820312 0.78125 -0.875 C 0.738281 -0.9375 0.671875 -0.96875 0.578125 -0.96875 Z M 0.578125 -0.96875 "/></g></g><g transform="translate(36.245253, 27.878249)"><g><path d="M 0.875 -0.296875 C 0.875 -0.191406 0.832031 -0.113281 0.75 -0.0625 C 0.675781 -0.0078125 0.570312 0.015625 0.4375 0.015625 C 0.300781 0.015625 0.191406 -0.00390625 0.109375 -0.046875 L 0.109375 -0.203125 C 0.160156 -0.171875 0.210938 -0.144531 0.265625 -0.125 C 0.328125 -0.113281 0.390625 -0.109375 0.453125 -0.109375 C 0.535156 -0.109375 0.597656 -0.125 0.640625 -0.15625 C 0.691406 -0.1875 0.71875 -0.226562 0.71875 -0.28125 C 0.71875 -0.320312 0.695312 -0.359375 0.65625 -0.390625 C 0.625 -0.421875 0.550781 -0.457031 0.4375 -0.5 C 0.34375 -0.53125 0.273438 -0.5625 0.234375 -0.59375 C 0.191406 -0.625 0.160156 -0.65625 0.140625 -0.6875 C 0.117188 -0.71875 0.109375 -0.757812 0.109375 -0.8125 C 0.109375 -0.90625 0.140625 -0.972656 0.203125 -1.015625 C 0.273438 -1.066406 0.375 -1.09375 0.5 -1.09375 C 0.625 -1.09375 0.738281 -1.070312 0.84375 -1.03125 L 0.78125 -0.890625 C 0.675781 -0.941406 0.582031 -0.96875 0.5 -0.96875 C 0.414062 -0.96875 0.351562 -0.953125 0.3125 -0.921875 C 0.28125 -0.898438 0.265625 -0.867188 0.265625 -0.828125 C 0.265625 -0.796875 0.269531 -0.769531 0.28125 -0.75 C 0.289062 -0.726562 0.3125 -0.707031 0.34375 -0.6875 C 0.382812 -0.675781 0.453125 -0.648438 0.546875 -0.609375 C 0.671875 -0.566406 0.753906 -0.519531 0.796875 -0.46875 C 0.847656 -0.425781 0.875 -0.367188 0.875 -0.296875 Z M 0.875 -0.296875 "/></g></g><g transform="translate(37.209033, 27.878249)"><g><path d="M 0.515625 -0.109375 C 0.546875 -0.109375 0.570312 -0.109375 0.59375 -0.109375 C 0.625 -0.117188 0.648438 -0.128906 0.671875 -0.140625 L 0.671875 -0.015625 C 0.648438 -0.00390625 0.625 0 0.59375 0 C 0.5625 0.0078125 0.53125 0.015625 0.5 0.015625 C 0.289062 0.015625 0.1875 -0.09375 0.1875 -0.3125 L 0.1875 -0.953125 L 0.03125 -0.953125 L 0.03125 -1.03125 L 0.1875 -1.09375 L 0.25 -1.328125 L 0.34375 -1.328125 L 0.34375 -1.078125 L 0.65625 -1.078125 L 0.65625 -0.953125 L 0.34375 -0.953125 L 0.34375 -0.3125 C 0.34375 -0.25 0.359375 -0.195312 0.390625 -0.15625 C 0.421875 -0.125 0.460938 -0.109375 0.515625 -0.109375 Z M 0.515625 -0.109375 "/></g></g><g transform="translate(37.92225, 27.878249)"><g><path d="M 0.84375 0 L 0.796875 -0.15625 C 0.742188 -0.0820312 0.691406 -0.0351562 0.640625 -0.015625 C 0.585938 0.00390625 0.519531 0.015625 0.4375 0.015625 C 0.332031 0.015625 0.25 -0.0078125 0.1875 -0.0625 C 0.125 -0.113281 0.09375 -0.191406 0.09375 -0.296875 C 0.09375 -0.515625 0.265625 -0.628906 0.609375 -0.640625 L 0.796875 -0.640625 L 0.796875 -0.71875 C 0.796875 -0.800781 0.773438 -0.863281 0.734375 -0.90625 C 0.703125 -0.945312 0.644531 -0.96875 0.5625 -0.96875 C 0.476562 -0.96875 0.378906 -0.9375 0.265625 -0.875 L 0.21875 -1 C 0.269531 -1.03125 0.328125 -1.050781 0.390625 -1.0625 C 0.453125 -1.082031 0.515625 -1.09375 0.578125 -1.09375 C 0.703125 -1.09375 0.796875 -1.0625 0.859375 -1 C 0.921875 -0.945312 0.953125 -0.859375 0.953125 -0.734375 L 0.953125 0 Z M 0.46875 -0.109375 C 0.570312 -0.109375 0.648438 -0.132812 0.703125 -0.1875 C 0.765625 -0.25 0.796875 -0.332031 0.796875 -0.4375 L 0.796875 -0.53125 L 0.625 -0.53125 C 0.5 -0.519531 0.40625 -0.492188 0.34375 -0.453125 C 0.289062 -0.421875 0.265625 -0.367188 0.265625 -0.296875 C 0.265625 -0.234375 0.28125 -0.1875 0.3125 -0.15625 C 0.351562 -0.125 0.40625 -0.109375 0.46875 -0.109375 Z M 0.46875 -0.109375 "/></g></g><g transform="translate(39.045839, 27.878249)"><g><path d="M 0.671875 -1.09375 C 0.710938 -1.09375 0.753906 -1.09375 0.796875 -1.09375 L 0.765625 -0.9375 C 0.722656 -0.945312 0.6875 -0.953125 0.65625 -0.953125 C 0.5625 -0.953125 0.484375 -0.914062 0.421875 -0.84375 C 0.367188 -0.769531 0.34375 -0.679688 0.34375 -0.578125 L 0.34375 0 L 0.171875 0 L 0.171875 -1.078125 L 0.3125 -1.078125 L 0.328125 -0.875 C 0.367188 -0.945312 0.414062 -1 0.46875 -1.03125 C 0.53125 -1.070312 0.597656 -1.09375 0.671875 -1.09375 Z M 0.671875 -1.09375 "/></g></g><g transform="translate(39.870527, 27.878249)"><g/></g><g transform="translate(40.395328, 27.878249)"><g><path d="M 0.71875 -0.75 L 0.8125 -0.75 C 0.863281 -0.75 0.90625 -0.757812 0.9375 -0.78125 C 0.96875 -0.8125 0.984375 -0.847656 0.984375 -0.890625 C 0.984375 -0.941406 0.96875 -0.976562 0.9375 -1 C 0.914062 -1.019531 0.875 -1.03125 0.8125 -1.03125 L 0.71875 -1.03125 Z M 1.140625 -0.90625 C 1.140625 -0.84375 1.125 -0.789062 1.09375 -0.75 C 1.070312 -0.71875 1.035156 -0.691406 0.984375 -0.671875 L 1.21875 -0.28125 L 1.046875 -0.28125 L 0.84375 -0.625 L 0.71875 -0.625 L 0.71875 -0.28125 L 0.5625 -0.28125 L 0.5625 -1.15625 L 0.828125 -1.15625 C 0.929688 -1.15625 1.007812 -1.132812 1.0625 -1.09375 C 1.113281 -1.050781 1.140625 -0.988281 1.140625 -0.90625 Z M 0.09375 -0.71875 C 0.09375 -0.851562 0.125 -0.976562 0.1875 -1.09375 C 0.257812 -1.207031 0.351562 -1.296875 0.46875 -1.359375 C 0.582031 -1.421875 0.707031 -1.453125 0.84375 -1.453125 C 0.96875 -1.453125 1.085938 -1.421875 1.203125 -1.359375 C 1.316406 -1.296875 1.40625 -1.207031 1.46875 -1.09375 C 1.539062 -0.976562 1.578125 -0.851562 1.578125 -0.71875 C 1.578125 -0.59375 1.546875 -0.472656 1.484375 -0.359375 C 1.421875 -0.242188 1.332031 -0.148438 1.21875 -0.078125 C 1.101562 -0.015625 0.976562 0.015625 0.84375 0.015625 C 0.707031 0.015625 0.582031 -0.015625 0.46875 -0.078125 C 0.351562 -0.148438 0.257812 -0.242188 0.1875 -0.359375 C 0.125 -0.472656 0.09375 -0.59375 0.09375 -0.71875 Z M 0.203125 -0.71875 C 0.203125 -0.601562 0.226562 -0.492188 0.28125 -0.390625 C 0.34375 -0.296875 0.421875 -0.21875 0.515625 -0.15625 C 0.617188 -0.101562 0.726562 -0.078125 0.84375 -0.078125 C 0.957031 -0.078125 1.0625 -0.101562 1.15625 -0.15625 C 1.25 -0.21875 1.320312 -0.296875 1.375 -0.390625 C 1.4375 -0.492188 1.46875 -0.601562 1.46875 -0.71875 C 1.46875 -0.832031 1.4375 -0.9375 1.375 -1.03125 C 1.320312 -1.132812 1.25 -1.210938 1.15625 -1.265625 C 1.0625 -1.328125 0.957031 -1.359375 0.84375 -1.359375 C 0.726562 -1.359375 0.617188 -1.328125 0.515625 -1.265625 C 0.421875 -1.210938 0.34375 -1.132812 0.28125 -1.03125 C 0.226562 -0.9375 0.203125 -0.832031 0.203125 -0.71875 Z M 0.203125 -0.71875 "/></g></g></g></svg>